<?xml version="1.0" encoding="UTF-8"?><svg xmlns="http://www.w3.org/2000/svg" xmlns:xlink="http://www.w3.org/1999/xlink" fill-opacity="1" color-rendering="auto" color-interpolation="auto" text-rendering="auto" stroke="black" stroke-linecap="square" width="548" stroke-miterlimit="10" shape-rendering="auto" stroke-opacity="1" fill="black" stroke-dasharray="none" font-weight="normal" stroke-width="1" height="394" font-family="'Dialog'" font-style="normal" stroke-linejoin="miter" font-size="12px" stroke-dashoffset="0" image-rendering="auto">
  <!--Generated by ySVG 2.5-->
  <defs id="genericDefs"/>
  <g>
    <defs id="defs1">
      <clipPath clipPathUnits="userSpaceOnUse" id="clipPath1">
        <path d="M0 0 L548 0 L548 394 L0 394 L0 0 Z"/>
      </clipPath>
      <clipPath clipPathUnits="userSpaceOnUse" id="clipPath2">
        <path d="M419 272 L967 272 L967 666 L419 666 L419 272 Z"/>
      </clipPath>
      <clipPath clipPathUnits="userSpaceOnUse" id="clipPath3">
        <path d="M-1172.8143 -1252.7084 L664.7904 -1252.7084 L664.7904 279.5139 L-1172.8143 279.5139 L-1172.8143 -1252.7084 Z"/>
      </clipPath>
      <clipPath clipPathUnits="userSpaceOnUse" id="clipPath4">
        <path d="M-1178.6826 -922.0988 L658.9222 -922.0988 L658.9222 439.8766 L-1178.6826 439.8766 L-1178.6826 -922.0988 Z"/>
      </clipPath>
      <clipPath clipPathUnits="userSpaceOnUse" id="clipPath5">
        <path d="M-1176.5868 -728.5185 L661.0179 -728.5185 L661.0179 633.4568 L-1176.5868 633.4568 L-1176.5868 -728.5185 Z"/>
      </clipPath>
      <clipPath clipPathUnits="userSpaceOnUse" id="clipPath6">
        <path d="M-1219.8148 -742.2222 L674.5062 -742.2222 L674.5062 1008.8889 L-1219.8148 1008.8889 L-1219.8148 -742.2222 Z"/>
      </clipPath>
    </defs>
    <g fill="white" text-rendering="geometricPrecision" shape-rendering="geometricPrecision" transform="translate(-419,-272)" stroke="white">
      <rect x="419" width="548" height="394" y="272" clip-path="url(#clipPath2)" stroke="none"/>
    </g>
    <g fill="white" text-rendering="geometricPrecision" shape-rendering="geometricPrecision" transform="matrix(1,0,0,1,-419,-272)" stroke="white">
      <rect x="856.375" width="93.625" height="221.375" y="428.75" clip-path="url(#clipPath2)" stroke="none"/>
    </g>
    <g transform="matrix(1,0,0,1,-419,-272)" fill="rgb(255,140,0)" text-rendering="geometricPrecision" shape-rendering="geometricPrecision" stroke-dasharray="0,4" stroke="rgb(255,140,0)" stroke-width="2">
      <rect fill="none" x="856.375" width="93.625" height="221.375" y="428.75" clip-path="url(#clipPath2)"/>
    </g>
    <g text-rendering="geometricPrecision" stroke-miterlimit="1.45" shape-rendering="geometricPrecision" transform="matrix(1,0,0,1,-419,-272)" stroke-linecap="butt">
      <text x="881.0127" xml:space="preserve" y="441.8887" clip-path="url(#clipPath2)" stroke="none">Service</text>
    </g>
    <g fill="white" text-rendering="geometricPrecision" shape-rendering="geometricPrecision" transform="matrix(1,0,0,1,-419,-272)" stroke="white">
      <rect x="434" width="398.625" height="221.375" y="413.875" clip-path="url(#clipPath2)" stroke="none"/>
    </g>
    <g transform="matrix(1,0,0,1,-419,-272)" fill="rgb(255,140,0)" text-rendering="geometricPrecision" shape-rendering="geometricPrecision" stroke-dasharray="0,4" stroke="rgb(255,140,0)" stroke-width="2">
      <rect fill="none" x="434" width="398.625" height="221.375" y="413.875" clip-path="url(#clipPath2)"/>
    </g>
    <g text-rendering="geometricPrecision" stroke-miterlimit="1.45" shape-rendering="geometricPrecision" transform="matrix(1,0,0,1,-419,-272)" stroke-linecap="butt">
      <text x="611.1377" xml:space="preserve" y="427.0137" clip-path="url(#clipPath2)" stroke="none">Service</text>
    </g>
    <g fill="rgb(255,140,0)" text-rendering="geometricPrecision" shape-rendering="geometricPrecision" transform="matrix(1,0,0,1,-419,-272)" stroke="rgb(255,140,0)">
      <rect x="459.625" width="340" height="30" y="483.625" clip-path="url(#clipPath2)" stroke="none"/>
      <rect x="459.625" stroke-linecap="butt" y="483.625" clip-path="url(#clipPath2)" fill="none" width="340" height="30"/>
    </g>
    <g text-rendering="geometricPrecision" stroke-miterlimit="1.45" shape-rendering="geometricPrecision" transform="matrix(1,0,0,1,-419,-272)" stroke-linecap="butt">
      <text x="585.501" xml:space="preserve" y="502.7793" clip-path="url(#clipPath2)" stroke="none">Geschäftslogik</text>
    </g>
    <g fill="rgb(255,140,0)" text-rendering="geometricPrecision" shape-rendering="geometricPrecision" transform="matrix(1,0,0,1,-419,-272)" stroke="rgb(255,140,0)">
      <rect x="459.625" width="340" height="30" y="536" clip-path="url(#clipPath2)" stroke="none"/>
      <rect x="459.625" stroke-linecap="butt" y="536" clip-path="url(#clipPath2)" fill="none" width="340" height="30"/>
    </g>
    <g text-rendering="geometricPrecision" stroke-miterlimit="1.45" shape-rendering="geometricPrecision" transform="matrix(1,0,0,1,-419,-272)" stroke-linecap="butt">
      <text x="546.6797" xml:space="preserve" y="555.1543" clip-path="url(#clipPath2)" stroke="none">Persistenzschicht (optional)</text>
    </g>
    <g fill="rgb(255,140,0)" text-rendering="geometricPrecision" shape-rendering="geometricPrecision" transform="matrix(1,0,0,1,-419,-272)" stroke="rgb(255,140,0)">
      <rect x="459.625" width="340" height="30" y="587.5" clip-path="url(#clipPath2)" stroke="none"/>
      <rect x="459.625" stroke-linecap="butt" y="587.5" clip-path="url(#clipPath2)" fill="none" width="340" height="30"/>
    </g>
    <g text-rendering="geometricPrecision" stroke-miterlimit="1.45" shape-rendering="geometricPrecision" transform="matrix(1,0,0,1,-419,-272)" stroke-linecap="butt">
      <text x="596.7188" xml:space="preserve" y="606.6543" clip-path="url(#clipPath2)" stroke="none">Datenbank</text>
    </g>
    <g text-rendering="geometricPrecision" shape-rendering="geometricPrecision" transform="matrix(0.2982,0,0,0.2571,349.75,322.125)">
      <g clip-path="url(#clipPath3)">
        <svg xml:space="preserve" opacity="1" writing-mode="lr-tb" stop-color="rgb(0, 0, 0)" shape-rendering="auto" glyph-orientation-horizontal="0deg" color-profile="auto" lighting-color="rgb(255, 255, 255)" color="rgb(0, 0, 0)" font-weight="400" alignment-baseline="auto" font-style="normal" version="1.1" color-interpolation-filters="linearrgb" text-anchor="start" stroke-linecap="butt" color-interpolation="srgb" font-variant="normal" word-spacing="normal" fill-opacity="1" text-rendering="auto" clip-path="none" text-decoration="none" letter-spacing="normal" viewBox="0 0 70 70" glyph-orientation-vertical="auto" display="inline" font-size-adjust="none" overflow="hidden" fill="rgb(0, 0, 0)" font-stretch="normal" stroke-dasharray="none" id="svg1.Ebene_4" stroke-miterlimit="4" stop-opacity="1" color-rendering="auto" font-size="12" pointer-events="visiblepainted" mask="none" direction="ltr" baseline-shift="baseline" enable-background="new 0 0 70 70" fill-rule="nonzero" image-rendering="auto" stroke-dashoffset="0" width="70px" marker-end="none" clip="auto" cursor="auto" stroke="none" filter="none" visibility="visible" kerning="auto" stroke-width="1" font-family="&quot;Arial&quot;,&quot;Helvetica&quot;,sans-serif" flood-opacity="1" clip-rule="nonzero" src="none" height="70px" unicode-bidi="normal" stroke-linejoin="miter" stroke-opacity="1" flood-color="rgb(0, 0, 0)" dominant-baseline="auto" marker-start="none" x="0px" marker-mid="none" y="0px">
<g id="svg1.disk_3">
	
		<linearGradient gradientTransform="matrix(1 0 0 -1 -642.8008 -920.7012)" x1="658.1758" x2="697.4258" gradientUnits="userSpaceOnUse" y1="-969.7573" y2="-969.7573" id="svg1.SVGID_1_">
		<stop offset="0" style="stop-color:#3C89C9"/>
		<stop offset="0.1482" style="stop-color:#60A6DD"/>
		<stop offset="0.3113" style="stop-color:#81C1F0"/>
		<stop offset="0.4476" style="stop-color:#95D1FB"/>
		<stop offset="0.5394" style="stop-color:#9CD7FF"/>
		<stop offset="0.636" style="stop-color:#98D4FD"/>
		<stop offset="0.7293" style="stop-color:#8DCAF6"/>
		<stop offset="0.8214" style="stop-color:#79BBEB"/>
		<stop offset="0.912" style="stop-color:#5EA5DC"/>
		<stop offset="1" style="stop-color:#3C89C9"/>
	</linearGradient>
	<path fill="url(#svg1.SVGID_1_)" d="M35,46.15c-10.838,0-19.625-1.875-19.625-4.188v10c0,2.313,8.787,4.188,19.625,4.188   c10.839,0,19.625-1.875,19.625-4.188v-10C54.625,44.275,45.839,46.15,35,46.15z"/>
	
		<linearGradient gradientTransform="matrix(1 0 0 -1 -642.8008 -920.7012)" x1="658.1758" x2="697.4258" gradientUnits="userSpaceOnUse" y1="-963.7573" y2="-963.7573" id="svg1.SVGID_2_">
		<stop offset="0" style="stop-color:#9CD7FF"/>
		<stop offset="0.0039" style="stop-color:#9DD7FF"/>
		<stop offset="0.2273" style="stop-color:#BDE5FF"/>
		<stop offset="0.4138" style="stop-color:#D1EEFF"/>
		<stop offset="0.5394" style="stop-color:#D9F1FF"/>
		<stop offset="0.6155" style="stop-color:#D5EFFE"/>
		<stop offset="0.6891" style="stop-color:#C9E7FA"/>
		<stop offset="0.7617" style="stop-color:#B6DAF3"/>
		<stop offset="0.8337" style="stop-color:#9AC8EA"/>
		<stop offset="0.9052" style="stop-color:#77B0DD"/>
		<stop offset="0.9754" style="stop-color:#4D94CF"/>
		<stop offset="1" style="stop-color:#3C89C9"/>
	</linearGradient>
	<path fill="url(#svg1.SVGID_2_)" d="M35,46.15c10.839,0,19.625-1.875,19.625-4.188l-1.229-2c0,2.168-8.235,3.927-18.396,3.927   c-9.481,0-17.396-1.959-18.396-3.927l-1.229,2C15.375,44.275,24.162,46.15,35,46.15z"/>
	<path fill="#3C89C9" d="M35,35.855c10.16,0,19.625,2.775,19.625,2.775c-0.375,2.721-5.367,5.438-19.554,5.438   c-12.125,0-18.467-2.484-19.541-4.918C15.248,38.512,24.84,35.855,35,35.855z"/>
</g>
<g id="svg1.disk_2">
	
		<linearGradient gradientTransform="matrix(1 0 0 -1 -642.8008 -920.7012)" x1="658.1758" x2="697.4258" gradientUnits="userSpaceOnUse" y1="-956.3076" y2="-956.3076" id="svg1.SVGID_3_">
		<stop offset="0" style="stop-color:#3C89C9"/>
		<stop offset="0.1482" style="stop-color:#60A6DD"/>
		<stop offset="0.3113" style="stop-color:#81C1F0"/>
		<stop offset="0.4476" style="stop-color:#95D1FB"/>
		<stop offset="0.5394" style="stop-color:#9CD7FF"/>
		<stop offset="0.636" style="stop-color:#98D4FD"/>
		<stop offset="0.7293" style="stop-color:#8DCAF6"/>
		<stop offset="0.8214" style="stop-color:#79BBEB"/>
		<stop offset="0.912" style="stop-color:#5EA5DC"/>
		<stop offset="1" style="stop-color:#3C89C9"/>
	</linearGradient>
	<path fill="url(#svg1.SVGID_3_)" d="M35,32.7c-10.838,0-19.625-1.875-19.625-4.188v10c0,2.313,8.787,4.188,19.625,4.188   c10.839,0,19.625-1.875,19.625-4.188v-10C54.625,30.825,45.839,32.7,35,32.7z"/>
	
		<linearGradient gradientTransform="matrix(1 0 0 -1 -642.8008 -920.7012)" x1="658.1758" x2="697.4258" gradientUnits="userSpaceOnUse" y1="-950.3076" y2="-950.3076" id="svg1.SVGID_4_">
		<stop offset="0" style="stop-color:#9CD7FF"/>
		<stop offset="0.0039" style="stop-color:#9DD7FF"/>
		<stop offset="0.2273" style="stop-color:#BDE5FF"/>
		<stop offset="0.4138" style="stop-color:#D1EEFF"/>
		<stop offset="0.5394" style="stop-color:#D9F1FF"/>
		<stop offset="0.6155" style="stop-color:#D5EFFE"/>
		<stop offset="0.6891" style="stop-color:#C9E7FA"/>
		<stop offset="0.7617" style="stop-color:#B6DAF3"/>
		<stop offset="0.8337" style="stop-color:#9AC8EA"/>
		<stop offset="0.9052" style="stop-color:#77B0DD"/>
		<stop offset="0.9754" style="stop-color:#4D94CF"/>
		<stop offset="1" style="stop-color:#3C89C9"/>
	</linearGradient>
	<path fill="url(#svg1.SVGID_4_)" d="M35,32.7c10.839,0,19.625-1.875,19.625-4.188l-1.229-2c0,2.168-8.235,3.926-18.396,3.926   c-9.481,0-17.396-1.959-18.396-3.926l-1.229,2C15.375,30.825,24.162,32.7,35,32.7z"/>
	<path fill="#3C89C9" d="M34.851,22.406c10.161,0,19.625,2.775,19.625,2.775c-0.375,2.721-5.367,5.438-19.555,5.438   c-12.125,0-18.467-2.485-19.541-4.918C15.098,25.061,24.691,22.406,34.851,22.406z"/>
</g>
<g id="svg1.disk_1">
	
		<linearGradient gradientTransform="matrix(1 0 0 -1 -642.8008 -920.7012)" x1="658.1758" x2="697.4258" gradientUnits="userSpaceOnUse" y1="-943.1074" y2="-943.1074" id="svg1.SVGID_5_">
		<stop offset="0" style="stop-color:#3C89C9"/>
		<stop offset="0.1482" style="stop-color:#60A6DD"/>
		<stop offset="0.3113" style="stop-color:#81C1F0"/>
		<stop offset="0.4476" style="stop-color:#95D1FB"/>
		<stop offset="0.5394" style="stop-color:#9CD7FF"/>
		<stop offset="0.636" style="stop-color:#98D4FD"/>
		<stop offset="0.7293" style="stop-color:#8DCAF6"/>
		<stop offset="0.8214" style="stop-color:#79BBEB"/>
		<stop offset="0.912" style="stop-color:#5EA5DC"/>
		<stop offset="1" style="stop-color:#3C89C9"/>
	</linearGradient>
	<path fill="url(#svg1.SVGID_5_)" d="M35,19.5c-10.838,0-19.625-1.875-19.625-4.188v10c0,2.313,8.787,4.188,19.625,4.188   c10.839,0,19.625-1.875,19.625-4.188v-10C54.625,17.625,45.839,19.5,35,19.5z"/>
	
		<linearGradient gradientTransform="matrix(1 0 0 -1 -642.8008 -920.7012)" x1="658.1758" x2="697.4258" gradientUnits="userSpaceOnUse" y1="-937.1074" y2="-937.1074" id="svg1.SVGID_6_">
		<stop offset="0" style="stop-color:#9CD7FF"/>
		<stop offset="0.0039" style="stop-color:#9DD7FF"/>
		<stop offset="0.2273" style="stop-color:#BDE5FF"/>
		<stop offset="0.4138" style="stop-color:#D1EEFF"/>
		<stop offset="0.5394" style="stop-color:#D9F1FF"/>
		<stop offset="0.6155" style="stop-color:#D5EFFE"/>
		<stop offset="0.6891" style="stop-color:#C9E7FA"/>
		<stop offset="0.7617" style="stop-color:#B6DAF3"/>
		<stop offset="0.8337" style="stop-color:#9AC8EA"/>
		<stop offset="0.9052" style="stop-color:#77B0DD"/>
		<stop offset="0.9754" style="stop-color:#4D94CF"/>
		<stop offset="1" style="stop-color:#3C89C9"/>
	</linearGradient>
	<path fill="url(#svg1.SVGID_6_)" d="M35,19.5c10.839,0,19.625-1.875,19.625-4.188l-1.229-2c0,2.168-8.235,3.926-18.396,3.926   c-9.481,0-17.396-1.959-18.396-3.926l-1.229,2C15.375,17.625,24.162,19.5,35,19.5z"/>
	
		<linearGradient gradientTransform="matrix(1 0 0 -1 -642.8008 -920.7012)" x1="659.4043" x2="696.1973" gradientUnits="userSpaceOnUse" y1="-934.0142" y2="-934.0142" id="svg1.SVGID_7_">
		<stop offset="0" style="stop-color:#9CD7FF"/>
		<stop offset="1" style="stop-color:#3C89C9"/>
	</linearGradient>
	<ellipse rx="18.396" fill="url(#svg1.SVGID_7_)" ry="3.926" cx="35" cy="13.313"/>
</g>
<path fill="#FFFFFF" d="M46.415,55.369c0,0-4.354,0.664-7.29,0.781  c-3.125,0.125-8.952,0-8.952,0l-2.384-10.292l0.044-2.108l-1.251-1.154l-1.418-10.185l-0.082-0.119l-0.207-2.375l-1.65-1.254  L20.704,18.18c0,0,4.213,0.903,7.234,1.07s8.375,0.25,8.375,0.25l3,9.875l-0.25,1.313l1.063,2.168l2.312,9.645l-0.521,1.416  l1.46,1.834L46.415,55.369z" enable-background="new    " opacity="0.24"/>
</svg>
      </g>
    </g>
    <g text-rendering="geometricPrecision" shape-rendering="geometricPrecision" transform="matrix(0.2982,0,0,0.2893,351.5,266.75)">
      <g clip-path="url(#clipPath4)">
        <svg xml:space="preserve" opacity="1" writing-mode="lr-tb" stop-color="rgb(0, 0, 0)" shape-rendering="auto" glyph-orientation-horizontal="0deg" color-profile="auto" lighting-color="rgb(255, 255, 255)" color="rgb(0, 0, 0)" font-weight="400" alignment-baseline="auto" font-style="normal" version="1.1" color-interpolation-filters="linearrgb" text-anchor="start" stroke-linecap="butt" color-interpolation="srgb" font-variant="normal" word-spacing="normal" fill-opacity="1" text-rendering="auto" clip-path="none" text-decoration="none" letter-spacing="normal" viewBox="0 0 70 70" glyph-orientation-vertical="auto" display="inline" font-size-adjust="none" overflow="hidden" fill="rgb(0, 0, 0)" font-stretch="normal" stroke-dasharray="none" id="svg2.Ebene_4" stroke-miterlimit="4" stop-opacity="1" color-rendering="auto" font-size="12" pointer-events="visiblepainted" mask="none" direction="ltr" baseline-shift="baseline" enable-background="new 0 0 70 70" fill-rule="nonzero" image-rendering="auto" stroke-dashoffset="0" width="70px" marker-end="none" clip="auto" cursor="auto" stroke="none" filter="none" visibility="visible" kerning="auto" stroke-width="1" font-family="&quot;Arial&quot;,&quot;Helvetica&quot;,sans-serif" flood-opacity="1" clip-rule="nonzero" src="none" height="70px" unicode-bidi="normal" stroke-linejoin="miter" stroke-opacity="1" flood-color="rgb(0, 0, 0)" dominant-baseline="auto" marker-start="none" x="0px" marker-mid="none" y="0px">
<linearGradient gradientTransform="matrix(1 0 0 1 -195.2002 -770.8008)" x1="247.6768" x2="197.8346" gradientUnits="userSpaceOnUse" y1="812.8428" y2="812.8428" id="svg2.SVGID_1_">
	<stop offset="0" style="stop-color:#4D4D4D"/>
	<stop offset="1" style="stop-color:#8D8D8D"/>
</linearGradient>
<rect x="17.5" fill="url(#svg2.SVGID_1_)" width="34.977" y="15.184" height="53.716"/>
<g>
	
		<linearGradient gradientTransform="matrix(1 0 0 1 -195.2002 -770.8008)" x1="242.1807" x2="218.1973" gradientUnits="userSpaceOnUse" y1="812.8428" y2="812.8428" id="svg2.SVGID_2_">
		<stop offset="0.0319" style="stop-color:#848484"/>
		<stop offset="0.1202" style="stop-color:#8C8C8C"/>
		<stop offset="0.308" style="stop-color:#969696"/>
		<stop offset="0.5394" style="stop-color:#999999"/>
		<stop offset="0.5501" style="stop-color:#9C9C9C"/>
		<stop offset="0.6256" style="stop-color:#B0B0B0"/>
		<stop offset="0.7118" style="stop-color:#BEBEBE"/>
		<stop offset="0.8178" style="stop-color:#C7C7C7"/>
		<stop offset="1" style="stop-color:#C9C9C9"/>
	</linearGradient>
	<path fill="url(#svg2.SVGID_2_)" d="M22.997,15.184c7.945-1.258,16.04-1.258,23.983,0c0,17.905,0,35.811,0,53.716   c-7.943,1.258-16.039,1.258-23.983,0C22.997,50.994,22.997,33.089,22.997,15.184z"/>
</g>
<g>
	<path fill="#515151" d="M22.997,28.862c7.995,0,15.989,0,23.983,0c0,13.346,0,26.693,0,40.037c-7.943,1.258-16.039,1.258-23.983,0   C22.997,55.555,22.997,42.208,22.997,28.862z"/>
</g>
<path fill="#565656" opacity="0.43" d="M22.997,18.986c7.982-0.628,16.001-0.628,23.983,0c0,2.707,0,5.413,0,8.12  c-7.994,0-15.989,0-23.983,0C22.997,24.399,22.997,21.693,22.997,18.986z"/>
<path fill="none" stroke-width="0.0999" d="M22.997,18.986  c7.982-0.628,16.001-0.628,23.983,0c0,2.707,0,5.413,0,8.12c-7.994,0-15.989,0-23.983,0C22.997,24.399,22.997,21.693,22.997,18.986z  " stroke-miterlimit="10" opacity="0.43" stroke="#4D4D4D"/>
<polygon enable-background="new    " points="  23.996,19.987 27.369,19.847 27.369,20.902 23.996,21.04 " fill="#565656" opacity="0.43" stroke="#4D4D4D" stroke-width="0.0135" stroke-miterlimit="10"/>
<rect x="48.807" y="16.758" fill="#E7ED00" width="3.692" height="1.505" stroke="#717171" stroke-width="0.1926" stroke-miterlimit="10"/>
<rect x="48.807" y="20.041" fill="#C8FF00" width="3.692" height="1.507" stroke="#717171" stroke-width="0.1926" stroke-miterlimit="10"/>
<g id="svg2.grid">
	<linearGradient y2="49.3643" id="svg2.SVGID_3_" x1="46.9414" gradientUnits="userSpaceOnUse" x2="22.9995" y1="49.3643">
		<stop offset="0" style="stop-color:#808080"/>
		<stop offset="0.1907" style="stop-color:#828282"/>
		<stop offset="0.2955" style="stop-color:#8A8A8A"/>
		<stop offset="0.3795" style="stop-color:#989898"/>
		<stop offset="0.4524" style="stop-color:#ACACAC"/>
		<stop offset="0.5175" style="stop-color:#C5C5C5"/>
		<stop offset="0.5273" style="stop-color:#C9C9C9"/>
		<stop offset="0.5914" style="stop-color:#C9C9C9"/>
		<stop offset="0.9681" style="stop-color:#C9C9C9"/>
	</linearGradient>
	<path fill="url(#svg2.SVGID_3_)" d="M23,29.063c0,13.22,0,26.438,0,39.66c7.931,1.256,16.012,1.256,23.941,0c0-13.222,0-26.439,0-39.66   C38.961,29.063,30.98,29.063,23,29.063z M45.896,32.944c-0.74,0.01-1.482,0.02-2.225,0.029c0-0.951,0-1.901-0.001-2.85   c0.742-0.003,1.483-0.005,2.224-0.008C45.896,31.058,45.896,32.001,45.896,32.944z M33.854,56.736c0-0.961,0-1.924,0-2.885   c0.744,0.006,1.489,0.006,2.233,0c0,0.961,0,1.924,0,2.885C35.343,56.744,34.598,56.744,33.854,56.736z M36.087,57.809   c0,0.955,0,1.91,0,2.866c-0.744,0.009-1.489,0.009-2.234,0c0-0.956,0-1.911,0-2.866C34.598,57.814,35.343,57.814,36.087,57.809z    M36.086,41.982c0,0.961,0,1.922,0,2.886c-0.744,0.004-1.488,0.004-2.231,0c0-0.964,0-1.925,0-2.886   C34.599,41.986,35.342,41.986,36.086,41.982z M33.854,40.912c0-0.955,0-1.91,0-2.865c0.743,0.002,1.487,0.002,2.23,0   c0,0.955,0,1.91,0,2.865C35.342,40.916,34.599,40.916,33.854,40.912z M33.854,48.824c0-0.961,0-1.924,0-2.885   c0.744,0.004,1.488,0.004,2.231,0c0,0.961,0,1.924,0,2.885C35.342,48.829,34.599,48.829,33.854,48.824z M36.086,49.896   c0,0.961,0,1.924,0.001,2.885c-0.745,0.008-1.489,0.008-2.233,0c0-0.961,0-1.924,0-2.885C34.599,49.9,35.342,49.9,36.086,49.896z    M32.807,44.859c-0.742-0.01-1.484-0.021-2.227-0.039c0-0.957,0-1.916,0-2.875c0.742,0.014,1.485,0.023,2.226,0.029   C32.807,42.936,32.807,43.896,32.807,44.859z M32.807,45.93c0,0.961,0,1.924,0,2.885c-0.742-0.012-1.485-0.025-2.227-0.047   c0-0.959,0.001-1.92,0.001-2.877C31.322,45.908,32.065,45.921,32.807,45.93z M32.807,49.885c0,0.959,0,1.922-0.001,2.883   c-0.742-0.012-1.485-0.031-2.228-0.056c0-0.959,0.001-1.918,0.001-2.877C31.321,49.857,32.064,49.874,32.807,49.885z    M32.806,53.838c0,0.96,0,1.922,0,2.883c-0.742-0.016-1.486-0.037-2.228-0.064c0-0.959,0-1.916,0.001-2.877   C31.32,53.805,32.063,53.826,32.806,53.838z M37.137,53.838c0.742-0.012,1.484-0.033,2.227-0.059c0,0.959,0,1.918,0,2.875   c-0.741,0.029-1.483,0.052-2.227,0.064C37.137,55.76,37.137,54.8,37.137,53.838z M37.137,52.768c0-0.961,0-1.924,0-2.883   c0.74-0.012,1.482-0.027,2.225-0.05c0,0.959,0,1.918,0.002,2.876C38.621,52.736,37.877,52.756,37.137,52.768z M37.137,48.813   c0-0.961,0-1.922-0.002-2.883c0.741-0.01,1.483-0.021,2.225-0.039c0.002,0.957,0.002,1.916,0.002,2.875   C38.619,48.788,37.876,48.805,37.137,48.813z M37.135,44.859c0-0.963,0-1.924,0-2.885c0.74-0.006,1.483-0.017,2.225-0.029   c0,0.959,0,1.916,0,2.875C38.618,44.84,37.876,44.85,37.135,44.859z M37.133,40.906c0-0.955,0-1.909,0-2.864   c0.741-0.005,1.483-0.013,2.227-0.021c0,0.951,0,1.903,0,2.856C38.618,40.891,37.875,40.9,37.133,40.906z M37.133,36.973   c-0.001-0.963-0.001-1.924-0.001-2.885c0.741-0.002,1.483-0.006,2.226-0.012c0,0.959,0.002,1.918,0.002,2.877   C38.616,36.961,37.874,36.969,37.133,36.973z M36.086,36.977c-0.744,0.002-1.487,0.002-2.23,0c0-0.963,0-1.924,0-2.887   c0.743,0.002,1.487,0.002,2.23,0C36.086,35.053,36.086,36.014,36.086,36.977z M32.809,36.973c-0.742-0.004-1.483-0.012-2.226-0.02   c0-0.959,0.001-1.918,0.001-2.877c0.742,0.006,1.484,0.01,2.226,0.012C32.81,35.049,32.809,36.01,32.809,36.973z M32.809,38.042   c0,0.955,0,1.91,0,2.864c-0.742-0.006-1.483-0.016-2.227-0.027c0-0.953,0-1.906,0-2.859C31.325,38.029,32.066,38.037,32.809,38.042   z M29.536,40.857c-0.742-0.017-1.483-0.033-2.225-0.055c0-0.947,0-1.895,0.001-2.841c0.741,0.019,1.483,0.031,2.225,0.042   C29.537,38.957,29.536,39.906,29.536,40.857z M29.535,41.924c0,0.957,0,1.916,0,2.873c-0.742-0.021-1.483-0.047-2.225-0.076   c0-0.953,0-1.904,0-2.857C28.052,41.887,28.793,41.908,29.535,41.924z M29.535,45.861c0,0.957-0.001,1.914-0.001,2.871   c-0.742-0.023-1.483-0.055-2.224-0.092c0-0.953,0-1.906,0-2.859C28.051,45.813,28.792,45.841,29.535,45.861z M29.533,49.801   c0,0.956-0.001,1.914-0.001,2.871c-0.742-0.031-1.484-0.066-2.225-0.111c0-0.953,0.001-1.906,0.001-2.858   C28.049,49.74,28.791,49.773,29.533,49.801z M29.531,53.738c0,0.955,0,1.914-0.001,2.869c-0.742-0.035-1.484-0.078-2.225-0.129   c0-0.953,0-1.904,0.001-2.857C28.047,53.667,28.789,53.706,29.531,53.738z M29.53,57.676c0,0.951-0.001,1.901-0.001,2.854   c-0.742-0.041-1.484-0.09-2.225-0.149c0-0.944,0.001-1.892,0.001-2.838C28.046,57.594,28.788,57.641,29.53,57.676z M30.577,57.723   c0.743,0.031,1.486,0.053,2.228,0.067c0,0.956,0,1.91,0,2.864c-0.742-0.016-1.486-0.041-2.229-0.074   C30.577,59.63,30.577,58.676,30.577,57.723z M32.805,61.727c0,0.961,0,1.922,0,2.883c-0.743-0.019-1.487-0.047-2.23-0.084   c0-0.959,0-1.918,0.001-2.875C31.318,61.684,32.062,61.709,32.805,61.727z M33.853,61.745c0.745,0.009,1.49,0.009,2.234,0   c0.001,0.96,0.001,1.924,0.001,2.883c-0.745,0.011-1.49,0.011-2.235,0C33.853,63.668,33.853,62.705,33.853,61.745z M37.139,61.727   c0.741-0.018,1.483-0.043,2.227-0.076c0,0.957,0.002,1.916,0.002,2.875c-0.742,0.037-1.486,0.065-2.229,0.084   C37.139,63.646,37.139,62.688,37.139,61.727z M37.137,60.654c0-0.954,0-1.908,0-2.864c0.742-0.015,1.484-0.036,2.229-0.067   c0,0.953,0,1.905,0,2.857C38.622,60.613,37.879,60.639,37.137,60.654z M40.411,57.676c0.741-0.035,1.483-0.082,2.224-0.135   c0,0.945,0,1.895,0.002,2.838c-0.74,0.059-1.482,0.107-2.226,0.15C40.411,59.577,40.411,58.627,40.411,57.676z M40.411,56.609   c-0.001-0.957-0.001-1.914-0.002-2.871c0.741-0.032,1.483-0.069,2.225-0.117c0,0.954,0.001,1.906,0.001,2.857   C41.895,56.529,41.152,56.574,40.411,56.609z M40.409,52.672c0-0.957-0.001-1.915-0.001-2.871c0.742-0.027,1.482-0.061,2.224-0.098   c0.001,0.951,0.001,1.904,0.001,2.857C41.893,52.604,41.15,52.641,40.409,52.672z M40.408,48.734c0-0.957-0.002-1.916-0.002-2.871   c0.742-0.021,1.482-0.051,2.225-0.079c0,0.952,0,1.903,0.001,2.856C41.891,48.678,41.148,48.709,40.408,48.734z M40.406,44.797   c0-0.957,0-1.916-0.002-2.873c0.742-0.016,1.484-0.037,2.226-0.061c0,0.953,0.001,1.904,0.001,2.857   C41.891,44.75,41.148,44.775,40.406,44.797z M40.404,40.857c0-0.951,0-1.901,0-2.854c0.74-0.011,1.482-0.025,2.224-0.042   c0,0.946,0.001,1.894,0.001,2.841C41.889,40.824,41.146,40.842,40.404,40.857z M40.402,36.939c0-0.957,0-1.916,0-2.874   c0.742-0.007,1.482-0.014,2.225-0.023c0.001,0.953,0.001,1.906,0.001,2.859C41.887,36.917,41.146,36.93,40.402,36.939z    M40.402,33.001C40.4,32.043,40.4,31.086,40.4,30.128c0.742,0,1.481-0.003,2.225-0.004c0.001,0.953,0.001,1.906,0.002,2.858   C41.885,32.991,41.143,32.997,40.402,33.001z M39.355,33.008c-0.742,0.004-1.482,0.007-2.225,0.009c0-0.961,0-1.922,0-2.884   c0.741,0,1.482-0.001,2.225-0.002C39.355,31.09,39.355,32.049,39.355,33.008z M36.085,33.02c-0.743,0.001-1.486,0.001-2.229,0   c0-0.961,0-1.923,0-2.885c0.742,0,1.486,0,2.229,0C36.085,31.096,36.085,32.058,36.085,33.02z M32.81,33.018   c-0.742-0.002-1.483-0.005-2.225-0.009c0-0.959,0-1.918,0-2.877c0.742,0,1.483,0.001,2.225,0.002   C32.81,31.095,32.81,32.056,32.81,33.018z M29.539,33.001c-0.742-0.005-1.483-0.011-2.225-0.019c0-0.953,0-1.905,0.001-2.858   c0.742,0.001,1.483,0.004,2.224,0.004C29.539,31.086,29.539,32.044,29.539,33.001z M29.539,34.068c0,0.957-0.001,1.915-0.001,2.872   c-0.741-0.01-1.483-0.021-2.224-0.035c0-0.953,0-1.906,0-2.859C28.055,34.053,28.796,34.06,29.539,34.068z M26.268,36.881   c-0.741-0.018-1.482-0.035-2.223-0.057c0-0.943,0-1.887,0-2.831c0.741,0.013,1.482,0.025,2.223,0.036   C26.268,34.98,26.268,35.93,26.268,36.881z M26.267,37.938c0,0.944,0,1.89,0,2.832c-0.741-0.024-1.482-0.053-2.223-0.084   c0-0.938,0-1.873,0-2.811C24.784,37.898,25.526,37.92,26.267,37.938z M26.266,41.828c0,0.949-0.001,1.898-0.001,2.85   c-0.74-0.033-1.481-0.068-2.222-0.111c0-0.942,0-1.887,0-2.83C24.784,41.77,25.525,41.801,26.266,41.828z M26.265,45.734   c0,0.951-0.001,1.9-0.001,2.852c-0.74-0.04-1.481-0.087-2.221-0.139c0-0.943,0-1.887,0-2.831   C24.783,45.661,25.523,45.7,26.265,45.734z M26.263,49.645c0,0.949,0,1.899,0,2.851c-0.741-0.052-1.481-0.104-2.22-0.168   c0-0.942,0-1.886,0-2.829C24.782,49.551,25.522,49.602,26.263,49.645z M26.262,53.553c0,0.949,0,1.899-0.001,2.852   c-0.741-0.059-1.48-0.123-2.219-0.195c0-0.943,0-1.889,0-2.83C24.781,53.443,25.521,53.501,26.262,53.553z M26.26,57.46   c0,0.944,0,1.888-0.001,2.832c-0.74-0.065-1.479-0.14-2.218-0.224c0-0.938,0-1.875,0-2.812C24.781,57.333,25.52,57.4,26.26,57.46z    M26.259,61.35c0,0.951,0,1.9,0,2.851c-0.741-0.073-1.48-0.158-2.219-0.253c0-0.942,0-1.887,0-2.828   C24.779,61.205,25.519,61.279,26.259,61.35z M27.304,61.441c0.741,0.06,1.483,0.111,2.224,0.154c0,0.955,0,1.912,0,2.868   c-0.742-0.045-1.484-0.103-2.225-0.166C27.304,63.348,27.304,62.395,27.304,61.441z M29.527,65.531c0,0.957,0,1.916,0,2.873   c-0.742-0.053-1.484-0.114-2.225-0.188c0-0.951,0.001-1.904,0.001-2.857C28.044,65.428,28.785,65.484,29.527,65.531z    M30.575,65.594c0.743,0.039,1.486,0.067,2.229,0.086c0,0.961,0,1.922,0,2.885c-0.743-0.021-1.487-0.053-2.229-0.094   C30.575,67.51,30.575,66.553,30.575,65.594z M33.853,65.7c0.745,0.009,1.49,0.009,2.235,0c0,0.961,0,1.924,0,2.885   c-0.745,0.013-1.491,0.013-2.235,0C33.853,67.623,33.853,66.661,33.853,65.7z M37.139,65.68c0.741-0.019,1.485-0.049,2.229-0.086   c0,0.959,0,1.92,0.001,2.877c-0.743,0.041-1.485,0.072-2.229,0.094C37.139,67.602,37.139,66.641,37.139,65.68z M40.413,65.531   c0.743-0.047,1.483-0.104,2.226-0.172c0,0.953,0,1.906,0,2.857c-0.74,0.073-1.481,0.135-2.224,0.188   C40.414,67.445,40.414,66.488,40.413,65.531z M40.413,64.465c-0.001-0.956-0.001-1.912-0.001-2.869   c0.742-0.043,1.484-0.095,2.225-0.154c0,0.953,0,1.906,0.002,2.857C41.896,64.363,41.154,64.42,40.413,64.465z M43.684,61.35   c0.739-0.066,1.479-0.145,2.217-0.229c0,0.942,0,1.887,0,2.83c-0.736,0.092-1.478,0.177-2.217,0.252   C43.684,63.25,43.684,62.301,43.684,61.35z M43.684,60.292c-0.002-0.944-0.002-1.888-0.002-2.832   c0.739-0.06,1.48-0.127,2.219-0.202c0,0.938,0,1.873,0,2.811C45.162,60.152,44.423,60.227,43.684,60.292z M43.682,56.402   c0-0.95-0.002-1.9-0.002-2.85c0.74-0.052,1.48-0.109,2.219-0.176c0.002,0.943,0.002,1.887,0.002,2.83   C45.162,56.279,44.421,56.346,43.682,56.402z M43.68,52.494c0-0.95,0-1.9-0.002-2.852c0.742-0.041,1.482-0.093,2.221-0.146   c0,0.942,0,1.887,0,2.829C45.16,52.391,44.42,52.443,43.68,52.494z M43.678,48.586c0-0.949,0-1.898,0-2.852   c0.74-0.034,1.481-0.073,2.221-0.117c0,0.943,0,1.887,0,2.83C45.159,48.499,44.418,48.546,43.678,48.586z M43.677,44.678   c0-0.949,0-1.9-0.001-2.85c0.741-0.027,1.481-0.059,2.221-0.092c0,0.943,0.002,1.888,0.002,2.83   C45.159,44.607,44.418,44.645,43.677,44.678z M43.676,40.77c-0.001-0.942-0.001-1.888-0.001-2.832   c0.742-0.018,1.482-0.039,2.222-0.063c0,0.938,0,1.873,0,2.811C45.157,40.717,44.417,40.744,43.676,40.77z M43.674,36.881   c0-0.951-0.001-1.901-0.001-2.851c0.741-0.01,1.483-0.022,2.224-0.035c0,0.943,0,1.886,0,2.831   C45.157,36.846,44.415,36.863,43.674,36.881z M26.269,30.122c0,0.95,0,1.9-0.001,2.85c-0.741-0.008-1.482-0.018-2.223-0.028   c0-0.943,0-1.887,0-2.83C24.786,30.117,25.528,30.119,26.269,30.122z M24.04,64.999c0.738,0.097,1.478,0.183,2.218,0.258   c0,0.95,0,1.901,0,2.853c-0.741-0.084-1.48-0.178-2.218-0.28C24.04,66.887,24.04,65.941,24.04,64.999z M43.684,68.109   c0-0.95,0-1.899,0-2.853c0.739-0.075,1.479-0.163,2.217-0.259c0.002,0.941,0.002,1.889,0.002,2.83   C45.163,67.934,44.425,68.025,43.684,68.109z"/>
</g>
<path fill="#FFFFFF" id="svg2.highlight_1_" d="M17.5,15.184h5.497  c0,0,6.847-0.943,11.974-0.943c5.128,0,12.009,0.943,12.009,0.943h5.496v41.951c0,0-12.076-0.521-18.623-2.548  C27.307,52.561,17.5,44.798,17.5,44.798V15.184z" enable-background="new    " opacity="0.17"/>
</svg>
      </g>
    </g>
    <g text-rendering="geometricPrecision" shape-rendering="geometricPrecision" transform="matrix(0.2982,0,0,0.2893,350.875,210.75)">
      <g clip-path="url(#clipPath5)">
        <svg xml:space="preserve" opacity="1" writing-mode="lr-tb" stop-color="rgb(0, 0, 0)" shape-rendering="auto" glyph-orientation-horizontal="0deg" color-profile="auto" lighting-color="rgb(255, 255, 255)" color="rgb(0, 0, 0)" font-weight="400" alignment-baseline="auto" font-style="normal" version="1.1" color-interpolation-filters="linearrgb" text-anchor="start" stroke-linecap="butt" color-interpolation="srgb" font-variant="normal" word-spacing="normal" fill-opacity="1" text-rendering="auto" clip-path="none" text-decoration="none" letter-spacing="normal" viewBox="0 0 70 70" glyph-orientation-vertical="auto" display="inline" font-size-adjust="none" overflow="hidden" fill="rgb(0, 0, 0)" font-stretch="normal" stroke-dasharray="none" id="svg3.Ebene_4" stroke-miterlimit="4" stop-opacity="1" color-rendering="auto" font-size="12" pointer-events="visiblepainted" mask="none" direction="ltr" baseline-shift="baseline" enable-background="new 0 0 70 70" fill-rule="nonzero" image-rendering="auto" stroke-dashoffset="0" width="70px" marker-end="none" clip="auto" cursor="auto" stroke="none" filter="none" visibility="visible" kerning="auto" stroke-width="1" font-family="&quot;Arial&quot;,&quot;Helvetica&quot;,sans-serif" flood-opacity="1" clip-rule="nonzero" src="none" height="70px" unicode-bidi="normal" stroke-linejoin="miter" stroke-opacity="1" flood-color="rgb(0, 0, 0)" dominant-baseline="auto" marker-start="none" x="0px" marker-mid="none" y="0px">
<linearGradient gradientTransform="matrix(1 0 0 1 -195.2002 -770.8008)" x1="247.6768" x2="197.8346" gradientUnits="userSpaceOnUse" y1="812.8428" y2="812.8428" id="svg3.SVGID_1_">
	<stop offset="0" style="stop-color:#4D4D4D"/>
	<stop offset="1" style="stop-color:#8D8D8D"/>
</linearGradient>
<rect x="17.5" fill="url(#svg3.SVGID_1_)" width="34.977" y="15.184" height="53.716"/>
<g>
	
		<linearGradient gradientTransform="matrix(1 0 0 1 -195.2002 -770.8008)" x1="242.1807" x2="218.1973" gradientUnits="userSpaceOnUse" y1="812.8428" y2="812.8428" id="svg3.SVGID_2_">
		<stop offset="0.0319" style="stop-color:#848484"/>
		<stop offset="0.1202" style="stop-color:#8C8C8C"/>
		<stop offset="0.308" style="stop-color:#969696"/>
		<stop offset="0.5394" style="stop-color:#999999"/>
		<stop offset="0.5501" style="stop-color:#9C9C9C"/>
		<stop offset="0.6256" style="stop-color:#B0B0B0"/>
		<stop offset="0.7118" style="stop-color:#BEBEBE"/>
		<stop offset="0.8178" style="stop-color:#C7C7C7"/>
		<stop offset="1" style="stop-color:#C9C9C9"/>
	</linearGradient>
	<path fill="url(#svg3.SVGID_2_)" d="M22.997,15.184c7.945-1.258,16.04-1.258,23.983,0c0,17.905,0,35.811,0,53.716   c-7.943,1.258-16.039,1.258-23.983,0C22.997,50.994,22.997,33.089,22.997,15.184z"/>
</g>
<g>
	<path fill="#515151" d="M22.997,28.862c7.995,0,15.989,0,23.983,0c0,13.346,0,26.693,0,40.037c-7.943,1.258-16.039,1.258-23.983,0   C22.997,55.555,22.997,42.208,22.997,28.862z"/>
</g>
<path fill="#565656" opacity="0.43" d="M22.997,18.986c7.982-0.628,16.001-0.628,23.983,0c0,2.707,0,5.413,0,8.12  c-7.994,0-15.989,0-23.983,0C22.997,24.399,22.997,21.693,22.997,18.986z"/>
<path fill="none" stroke-width="0.0999" d="M22.997,18.986  c7.982-0.628,16.001-0.628,23.983,0c0,2.707,0,5.413,0,8.12c-7.994,0-15.989,0-23.983,0C22.997,24.399,22.997,21.693,22.997,18.986z  " stroke-miterlimit="10" opacity="0.43" stroke="#4D4D4D"/>
<polygon enable-background="new    " points="  23.996,19.987 27.369,19.847 27.369,20.902 23.996,21.04 " fill="#565656" opacity="0.43" stroke="#4D4D4D" stroke-width="0.0135" stroke-miterlimit="10"/>
<rect x="48.807" y="16.758" fill="#E7ED00" width="3.692" height="1.505" stroke="#717171" stroke-width="0.1926" stroke-miterlimit="10"/>
<rect x="48.807" y="20.041" fill="#C8FF00" width="3.692" height="1.507" stroke="#717171" stroke-width="0.1926" stroke-miterlimit="10"/>
<g id="svg3.grid">
	<linearGradient y2="49.3643" id="svg3.SVGID_3_" x1="46.9414" gradientUnits="userSpaceOnUse" x2="22.9995" y1="49.3643">
		<stop offset="0" style="stop-color:#808080"/>
		<stop offset="0.1907" style="stop-color:#828282"/>
		<stop offset="0.2955" style="stop-color:#8A8A8A"/>
		<stop offset="0.3795" style="stop-color:#989898"/>
		<stop offset="0.4524" style="stop-color:#ACACAC"/>
		<stop offset="0.5175" style="stop-color:#C5C5C5"/>
		<stop offset="0.5273" style="stop-color:#C9C9C9"/>
		<stop offset="0.5914" style="stop-color:#C9C9C9"/>
		<stop offset="0.9681" style="stop-color:#C9C9C9"/>
	</linearGradient>
	<path fill="url(#svg3.SVGID_3_)" d="M23,29.063c0,13.22,0,26.438,0,39.66c7.931,1.256,16.012,1.256,23.941,0c0-13.222,0-26.439,0-39.66   C38.961,29.063,30.98,29.063,23,29.063z M45.896,32.944c-0.74,0.01-1.482,0.02-2.225,0.029c0-0.951,0-1.901-0.001-2.85   c0.742-0.003,1.483-0.005,2.224-0.008C45.896,31.058,45.896,32.001,45.896,32.944z M33.854,56.736c0-0.961,0-1.924,0-2.885   c0.744,0.006,1.489,0.006,2.233,0c0,0.961,0,1.924,0,2.885C35.343,56.744,34.598,56.744,33.854,56.736z M36.087,57.809   c0,0.955,0,1.91,0,2.866c-0.744,0.009-1.489,0.009-2.234,0c0-0.956,0-1.911,0-2.866C34.598,57.814,35.343,57.814,36.087,57.809z    M36.086,41.982c0,0.961,0,1.922,0,2.886c-0.744,0.004-1.488,0.004-2.231,0c0-0.964,0-1.925,0-2.886   C34.599,41.986,35.342,41.986,36.086,41.982z M33.854,40.912c0-0.955,0-1.91,0-2.865c0.743,0.002,1.487,0.002,2.23,0   c0,0.955,0,1.91,0,2.865C35.342,40.916,34.599,40.916,33.854,40.912z M33.854,48.824c0-0.961,0-1.924,0-2.885   c0.744,0.004,1.488,0.004,2.231,0c0,0.961,0,1.924,0,2.885C35.342,48.829,34.599,48.829,33.854,48.824z M36.086,49.896   c0,0.961,0,1.924,0.001,2.885c-0.745,0.008-1.489,0.008-2.233,0c0-0.961,0-1.924,0-2.885C34.599,49.9,35.342,49.9,36.086,49.896z    M32.807,44.859c-0.742-0.01-1.484-0.021-2.227-0.039c0-0.957,0-1.916,0-2.875c0.742,0.014,1.485,0.023,2.226,0.029   C32.807,42.936,32.807,43.896,32.807,44.859z M32.807,45.93c0,0.961,0,1.924,0,2.885c-0.742-0.012-1.485-0.025-2.227-0.047   c0-0.959,0.001-1.92,0.001-2.877C31.322,45.908,32.065,45.921,32.807,45.93z M32.807,49.885c0,0.959,0,1.922-0.001,2.883   c-0.742-0.012-1.485-0.031-2.228-0.056c0-0.959,0.001-1.918,0.001-2.877C31.321,49.857,32.064,49.874,32.807,49.885z    M32.806,53.838c0,0.96,0,1.922,0,2.883c-0.742-0.016-1.486-0.037-2.228-0.064c0-0.959,0-1.916,0.001-2.877   C31.32,53.805,32.063,53.826,32.806,53.838z M37.137,53.838c0.742-0.012,1.484-0.033,2.227-0.059c0,0.959,0,1.918,0,2.875   c-0.741,0.029-1.483,0.052-2.227,0.064C37.137,55.76,37.137,54.8,37.137,53.838z M37.137,52.768c0-0.961,0-1.924,0-2.883   c0.74-0.012,1.482-0.027,2.225-0.05c0,0.959,0,1.918,0.002,2.876C38.621,52.736,37.877,52.756,37.137,52.768z M37.137,48.813   c0-0.961,0-1.922-0.002-2.883c0.741-0.01,1.483-0.021,2.225-0.039c0.002,0.957,0.002,1.916,0.002,2.875   C38.619,48.788,37.876,48.805,37.137,48.813z M37.135,44.859c0-0.963,0-1.924,0-2.885c0.74-0.006,1.483-0.017,2.225-0.029   c0,0.959,0,1.916,0,2.875C38.618,44.84,37.876,44.85,37.135,44.859z M37.133,40.906c0-0.955,0-1.909,0-2.864   c0.741-0.005,1.483-0.013,2.227-0.021c0,0.951,0,1.903,0,2.856C38.618,40.891,37.875,40.9,37.133,40.906z M37.133,36.973   c-0.001-0.963-0.001-1.924-0.001-2.885c0.741-0.002,1.483-0.006,2.226-0.012c0,0.959,0.002,1.918,0.002,2.877   C38.616,36.961,37.874,36.969,37.133,36.973z M36.086,36.977c-0.744,0.002-1.487,0.002-2.23,0c0-0.963,0-1.924,0-2.887   c0.743,0.002,1.487,0.002,2.23,0C36.086,35.053,36.086,36.014,36.086,36.977z M32.809,36.973c-0.742-0.004-1.483-0.012-2.226-0.02   c0-0.959,0.001-1.918,0.001-2.877c0.742,0.006,1.484,0.01,2.226,0.012C32.81,35.049,32.809,36.01,32.809,36.973z M32.809,38.042   c0,0.955,0,1.91,0,2.864c-0.742-0.006-1.483-0.016-2.227-0.027c0-0.953,0-1.906,0-2.859C31.325,38.029,32.066,38.037,32.809,38.042   z M29.536,40.857c-0.742-0.017-1.483-0.033-2.225-0.055c0-0.947,0-1.895,0.001-2.841c0.741,0.019,1.483,0.031,2.225,0.042   C29.537,38.957,29.536,39.906,29.536,40.857z M29.535,41.924c0,0.957,0,1.916,0,2.873c-0.742-0.021-1.483-0.047-2.225-0.076   c0-0.953,0-1.904,0-2.857C28.052,41.887,28.793,41.908,29.535,41.924z M29.535,45.861c0,0.957-0.001,1.914-0.001,2.871   c-0.742-0.023-1.483-0.055-2.224-0.092c0-0.953,0-1.906,0-2.859C28.051,45.813,28.792,45.841,29.535,45.861z M29.533,49.801   c0,0.956-0.001,1.914-0.001,2.871c-0.742-0.031-1.484-0.066-2.225-0.111c0-0.953,0.001-1.906,0.001-2.858   C28.049,49.74,28.791,49.773,29.533,49.801z M29.531,53.738c0,0.955,0,1.914-0.001,2.869c-0.742-0.035-1.484-0.078-2.225-0.129   c0-0.953,0-1.904,0.001-2.857C28.047,53.667,28.789,53.706,29.531,53.738z M29.53,57.676c0,0.951-0.001,1.901-0.001,2.854   c-0.742-0.041-1.484-0.09-2.225-0.149c0-0.944,0.001-1.892,0.001-2.838C28.046,57.594,28.788,57.641,29.53,57.676z M30.577,57.723   c0.743,0.031,1.486,0.053,2.228,0.067c0,0.956,0,1.91,0,2.864c-0.742-0.016-1.486-0.041-2.229-0.074   C30.577,59.63,30.577,58.676,30.577,57.723z M32.805,61.727c0,0.961,0,1.922,0,2.883c-0.743-0.019-1.487-0.047-2.23-0.084   c0-0.959,0-1.918,0.001-2.875C31.318,61.684,32.062,61.709,32.805,61.727z M33.853,61.745c0.745,0.009,1.49,0.009,2.234,0   c0.001,0.96,0.001,1.924,0.001,2.883c-0.745,0.011-1.49,0.011-2.235,0C33.853,63.668,33.853,62.705,33.853,61.745z M37.139,61.727   c0.741-0.018,1.483-0.043,2.227-0.076c0,0.957,0.002,1.916,0.002,2.875c-0.742,0.037-1.486,0.065-2.229,0.084   C37.139,63.646,37.139,62.688,37.139,61.727z M37.137,60.654c0-0.954,0-1.908,0-2.864c0.742-0.015,1.484-0.036,2.229-0.067   c0,0.953,0,1.905,0,2.857C38.622,60.613,37.879,60.639,37.137,60.654z M40.411,57.676c0.741-0.035,1.483-0.082,2.224-0.135   c0,0.945,0,1.895,0.002,2.838c-0.74,0.059-1.482,0.107-2.226,0.15C40.411,59.577,40.411,58.627,40.411,57.676z M40.411,56.609   c-0.001-0.957-0.001-1.914-0.002-2.871c0.741-0.032,1.483-0.069,2.225-0.117c0,0.954,0.001,1.906,0.001,2.857   C41.895,56.529,41.152,56.574,40.411,56.609z M40.409,52.672c0-0.957-0.001-1.915-0.001-2.871c0.742-0.027,1.482-0.061,2.224-0.098   c0.001,0.951,0.001,1.904,0.001,2.857C41.893,52.604,41.15,52.641,40.409,52.672z M40.408,48.734c0-0.957-0.002-1.916-0.002-2.871   c0.742-0.021,1.482-0.051,2.225-0.079c0,0.952,0,1.903,0.001,2.856C41.891,48.678,41.148,48.709,40.408,48.734z M40.406,44.797   c0-0.957,0-1.916-0.002-2.873c0.742-0.016,1.484-0.037,2.226-0.061c0,0.953,0.001,1.904,0.001,2.857   C41.891,44.75,41.148,44.775,40.406,44.797z M40.404,40.857c0-0.951,0-1.901,0-2.854c0.74-0.011,1.482-0.025,2.224-0.042   c0,0.946,0.001,1.894,0.001,2.841C41.889,40.824,41.146,40.842,40.404,40.857z M40.402,36.939c0-0.957,0-1.916,0-2.874   c0.742-0.007,1.482-0.014,2.225-0.023c0.001,0.953,0.001,1.906,0.001,2.859C41.887,36.917,41.146,36.93,40.402,36.939z    M40.402,33.001C40.4,32.043,40.4,31.086,40.4,30.128c0.742,0,1.481-0.003,2.225-0.004c0.001,0.953,0.001,1.906,0.002,2.858   C41.885,32.991,41.143,32.997,40.402,33.001z M39.355,33.008c-0.742,0.004-1.482,0.007-2.225,0.009c0-0.961,0-1.922,0-2.884   c0.741,0,1.482-0.001,2.225-0.002C39.355,31.09,39.355,32.049,39.355,33.008z M36.085,33.02c-0.743,0.001-1.486,0.001-2.229,0   c0-0.961,0-1.923,0-2.885c0.742,0,1.486,0,2.229,0C36.085,31.096,36.085,32.058,36.085,33.02z M32.81,33.018   c-0.742-0.002-1.483-0.005-2.225-0.009c0-0.959,0-1.918,0-2.877c0.742,0,1.483,0.001,2.225,0.002   C32.81,31.095,32.81,32.056,32.81,33.018z M29.539,33.001c-0.742-0.005-1.483-0.011-2.225-0.019c0-0.953,0-1.905,0.001-2.858   c0.742,0.001,1.483,0.004,2.224,0.004C29.539,31.086,29.539,32.044,29.539,33.001z M29.539,34.068c0,0.957-0.001,1.915-0.001,2.872   c-0.741-0.01-1.483-0.021-2.224-0.035c0-0.953,0-1.906,0-2.859C28.055,34.053,28.796,34.06,29.539,34.068z M26.268,36.881   c-0.741-0.018-1.482-0.035-2.223-0.057c0-0.943,0-1.887,0-2.831c0.741,0.013,1.482,0.025,2.223,0.036   C26.268,34.98,26.268,35.93,26.268,36.881z M26.267,37.938c0,0.944,0,1.89,0,2.832c-0.741-0.024-1.482-0.053-2.223-0.084   c0-0.938,0-1.873,0-2.811C24.784,37.898,25.526,37.92,26.267,37.938z M26.266,41.828c0,0.949-0.001,1.898-0.001,2.85   c-0.74-0.033-1.481-0.068-2.222-0.111c0-0.942,0-1.887,0-2.83C24.784,41.77,25.525,41.801,26.266,41.828z M26.265,45.734   c0,0.951-0.001,1.9-0.001,2.852c-0.74-0.04-1.481-0.087-2.221-0.139c0-0.943,0-1.887,0-2.831   C24.783,45.661,25.523,45.7,26.265,45.734z M26.263,49.645c0,0.949,0,1.899,0,2.851c-0.741-0.052-1.481-0.104-2.22-0.168   c0-0.942,0-1.886,0-2.829C24.782,49.551,25.522,49.602,26.263,49.645z M26.262,53.553c0,0.949,0,1.899-0.001,2.852   c-0.741-0.059-1.48-0.123-2.219-0.195c0-0.943,0-1.889,0-2.83C24.781,53.443,25.521,53.501,26.262,53.553z M26.26,57.46   c0,0.944,0,1.888-0.001,2.832c-0.74-0.065-1.479-0.14-2.218-0.224c0-0.938,0-1.875,0-2.812C24.781,57.333,25.52,57.4,26.26,57.46z    M26.259,61.35c0,0.951,0,1.9,0,2.851c-0.741-0.073-1.48-0.158-2.219-0.253c0-0.942,0-1.887,0-2.828   C24.779,61.205,25.519,61.279,26.259,61.35z M27.304,61.441c0.741,0.06,1.483,0.111,2.224,0.154c0,0.955,0,1.912,0,2.868   c-0.742-0.045-1.484-0.103-2.225-0.166C27.304,63.348,27.304,62.395,27.304,61.441z M29.527,65.531c0,0.957,0,1.916,0,2.873   c-0.742-0.053-1.484-0.114-2.225-0.188c0-0.951,0.001-1.904,0.001-2.857C28.044,65.428,28.785,65.484,29.527,65.531z    M30.575,65.594c0.743,0.039,1.486,0.067,2.229,0.086c0,0.961,0,1.922,0,2.885c-0.743-0.021-1.487-0.053-2.229-0.094   C30.575,67.51,30.575,66.553,30.575,65.594z M33.853,65.7c0.745,0.009,1.49,0.009,2.235,0c0,0.961,0,1.924,0,2.885   c-0.745,0.013-1.491,0.013-2.235,0C33.853,67.623,33.853,66.661,33.853,65.7z M37.139,65.68c0.741-0.019,1.485-0.049,2.229-0.086   c0,0.959,0,1.92,0.001,2.877c-0.743,0.041-1.485,0.072-2.229,0.094C37.139,67.602,37.139,66.641,37.139,65.68z M40.413,65.531   c0.743-0.047,1.483-0.104,2.226-0.172c0,0.953,0,1.906,0,2.857c-0.74,0.073-1.481,0.135-2.224,0.188   C40.414,67.445,40.414,66.488,40.413,65.531z M40.413,64.465c-0.001-0.956-0.001-1.912-0.001-2.869   c0.742-0.043,1.484-0.095,2.225-0.154c0,0.953,0,1.906,0.002,2.857C41.896,64.363,41.154,64.42,40.413,64.465z M43.684,61.35   c0.739-0.066,1.479-0.145,2.217-0.229c0,0.942,0,1.887,0,2.83c-0.736,0.092-1.478,0.177-2.217,0.252   C43.684,63.25,43.684,62.301,43.684,61.35z M43.684,60.292c-0.002-0.944-0.002-1.888-0.002-2.832   c0.739-0.06,1.48-0.127,2.219-0.202c0,0.938,0,1.873,0,2.811C45.162,60.152,44.423,60.227,43.684,60.292z M43.682,56.402   c0-0.95-0.002-1.9-0.002-2.85c0.74-0.052,1.48-0.109,2.219-0.176c0.002,0.943,0.002,1.887,0.002,2.83   C45.162,56.279,44.421,56.346,43.682,56.402z M43.68,52.494c0-0.95,0-1.9-0.002-2.852c0.742-0.041,1.482-0.093,2.221-0.146   c0,0.942,0,1.887,0,2.829C45.16,52.391,44.42,52.443,43.68,52.494z M43.678,48.586c0-0.949,0-1.898,0-2.852   c0.74-0.034,1.481-0.073,2.221-0.117c0,0.943,0,1.887,0,2.83C45.159,48.499,44.418,48.546,43.678,48.586z M43.677,44.678   c0-0.949,0-1.9-0.001-2.85c0.741-0.027,1.481-0.059,2.221-0.092c0,0.943,0.002,1.888,0.002,2.83   C45.159,44.607,44.418,44.645,43.677,44.678z M43.676,40.77c-0.001-0.942-0.001-1.888-0.001-2.832   c0.742-0.018,1.482-0.039,2.222-0.063c0,0.938,0,1.873,0,2.811C45.157,40.717,44.417,40.744,43.676,40.77z M43.674,36.881   c0-0.951-0.001-1.901-0.001-2.851c0.741-0.01,1.483-0.022,2.224-0.035c0,0.943,0,1.886,0,2.831   C45.157,36.846,44.415,36.863,43.674,36.881z M26.269,30.122c0,0.95,0,1.9-0.001,2.85c-0.741-0.008-1.482-0.018-2.223-0.028   c0-0.943,0-1.887,0-2.83C24.786,30.117,25.528,30.119,26.269,30.122z M24.04,64.999c0.738,0.097,1.478,0.183,2.218,0.258   c0,0.95,0,1.901,0,2.853c-0.741-0.084-1.48-0.178-2.218-0.28C24.04,66.887,24.04,65.941,24.04,64.999z M43.684,68.109   c0-0.95,0-1.899,0-2.853c0.739-0.075,1.479-0.163,2.217-0.259c0.002,0.941,0.002,1.889,0.002,2.83   C45.163,67.934,44.425,68.025,43.684,68.109z"/>
</g>
<path fill="#FFFFFF" id="svg3.highlight_1_" d="M17.5,15.184h5.497  c0,0,6.847-0.943,11.974-0.943c5.128,0,12.009,0.943,12.009,0.943h5.496v41.951c0,0-12.076-0.521-18.623-2.548  C27.307,52.561,17.5,44.798,17.5,44.798V15.184z" enable-background="new    " opacity="0.17"/>
</svg>
      </g>
    </g>
    <g fill="rgb(255,140,0)" text-rendering="geometricPrecision" shape-rendering="geometricPrecision" transform="matrix(1,0,0,1,-419,-272)" stroke="rgb(255,140,0)">
      <rect x="460.25" width="340" height="30" y="432" clip-path="url(#clipPath2)" stroke="none"/>
      <rect x="460.25" stroke-linecap="butt" y="432" clip-path="url(#clipPath2)" fill="none" width="340" height="30"/>
    </g>
    <g text-rendering="geometricPrecision" stroke-miterlimit="1.45" shape-rendering="geometricPrecision" transform="matrix(1,0,0,1,-419,-272)" stroke-linecap="butt">
      <text x="536.9658" xml:space="preserve" y="451.1543" clip-path="url(#clipPath2)" stroke="none">Präsentationsschicht (optional)</text>
    </g>
    <g text-rendering="geometricPrecision" shape-rendering="geometricPrecision" transform="matrix(0.2893,0,0,0.225,352.875,167)">
      <g clip-path="url(#clipPath6)">
        <svg xml:space="preserve" opacity="1" writing-mode="lr-tb" stop-color="rgb(0, 0, 0)" shape-rendering="auto" glyph-orientation-horizontal="0deg" color-profile="auto" lighting-color="rgb(255, 255, 255)" color="rgb(0, 0, 0)" font-weight="400" alignment-baseline="auto" font-style="normal" version="1.1" color-interpolation-filters="linearrgb" text-anchor="start" stroke-linecap="butt" color-interpolation="srgb" font-variant="normal" word-spacing="normal" fill-opacity="1" text-rendering="auto" clip-path="none" text-decoration="none" letter-spacing="normal" viewBox="0 0 70 70" glyph-orientation-vertical="auto" display="inline" font-size-adjust="none" overflow="hidden" fill="rgb(0, 0, 0)" font-stretch="normal" stroke-dasharray="none" id="svg4.Ebene_1" stroke-miterlimit="4" stop-opacity="1" color-rendering="auto" font-size="12" pointer-events="visiblepainted" mask="none" direction="ltr" baseline-shift="baseline" enable-background="new 0 0 70 70" fill-rule="nonzero" image-rendering="auto" stroke-dashoffset="0" width="70px" marker-end="none" clip="auto" cursor="auto" stroke="none" filter="none" visibility="visible" kerning="auto" stroke-width="1" font-family="&quot;Arial&quot;,&quot;Helvetica&quot;,sans-serif" flood-opacity="1" clip-rule="nonzero" src="none" height="70px" unicode-bidi="normal" stroke-linejoin="miter" stroke-opacity="1" flood-color="rgb(0, 0, 0)" dominant-baseline="auto" marker-start="none" x="0px" marker-mid="none" y="0px">
<g id="svg4.Ebene_1_2_">
	<g id="svg4.Ebene_1_1_">
		<g id="svg4.Keyboard">
			<g>
				
					<linearGradient gradientTransform="matrix(1 0 0 1 -195.2002 -770.8008)" x1="224.2734" x2="224.2734" gradientUnits="userSpaceOnUse" y1="831.9775" y2="808.6547" id="svg4.SVGID_1_">
					<stop offset="0.0319" style="stop-color:#808080"/>
					<stop offset="0.1229" style="stop-color:#939393"/>
					<stop offset="0.2702" style="stop-color:#ABABAB"/>
					<stop offset="0.4266" style="stop-color:#BCBCBC"/>
					<stop offset="0.5968" style="stop-color:#C6C6C6"/>
					<stop offset="0.8061" style="stop-color:#C9C9C9"/>
				</linearGradient>
				<path fill="url(#svg4.SVGID_1_)" d="M54.645,59.48c0.195,0.459-0.053,0.836-0.553,0.836H3.891c-0.5,0-0.604-0.272-0.232-0.605      l8.023-7.191c0.373-0.334,1.086-0.605,1.586-0.605h37.255c0.498,0,1.065,0.377,1.265,0.836L54.645,59.48z"/>
				
					<path stroke-linecap="round" fill="none" stroke-linejoin="round" d="      M54.645,59.48c0.195,0.459-0.053,0.836-0.553,0.836H3.891c-0.5,0-0.604-0.272-0.232-0.605l8.023-7.191      c0.373-0.334,1.086-0.605,1.586-0.605h37.255c0.498,0,1.065,0.377,1.265,0.836L54.645,59.48z" stroke="#8D8D8D" stroke-width="0.25" stroke-miterlimit="10"/>
			</g>
			<g>
				<g>
					<g>
						<path fill="#717171" d="M35.428,58.134c0,0.25-0.205,0.454-0.455,0.454H7.335c-0.25,0-0.304-0.139-0.119-0.307l5.638-5.154        c0.184-0.17,0.539-0.309,0.789-0.309h21.332c0.25,0,0.454,0.205,0.454,0.455L35.428,58.134L35.428,58.134z"/>
					</g>
					<g>
						<path fill="#717171" d="M44.049,58.16c0.086,0.236,0.359,0.428,0.609,0.428h7.465c0.25,0,0.375-0.188,0.279-0.42l-2.049-4.93        c-0.098-0.229-0.379-0.42-0.629-0.42h-7.17c-0.25,0-0.386,0.191-0.301,0.428L44.049,58.16z"/>
					</g>
					<g>
						<path fill="#717171" d="M36.201,58.134c0,0.25,0.205,0.454,0.455,0.454h6.135c0.25,0,0.382-0.189,0.293-0.426l-0.156-0.409        c-0.089-0.233-0.365-0.421-0.615-0.416l-1.045,0.021c-0.25,0.004-0.509-0.189-0.574-0.432l-0.021-0.082        c-0.065-0.242-0.321-0.439-0.571-0.439h-1.316c-0.25,0-0.444,0.205-0.432,0.453l0.002,0.059        c0.016,0.25-0.181,0.455-0.431,0.459l-1.269,0.021c-0.25,0.006-0.454,0.211-0.454,0.461L36.201,58.134L36.201,58.134z"/>
					</g>
					<g>
						<path fill="#717171" d="M36.201,54.566c0,0.25,0.205,0.455,0.455,0.455h4.845c0.25,0,0.396-0.195,0.323-0.437l-0.402-1.333        c-0.07-0.238-0.335-0.438-0.585-0.438h-4.181c-0.25,0-0.455,0.205-0.455,0.455V54.566z"/>
					</g>
				</g>
			</g>
		</g>
		<g id="svg4.Display_Foot">
			<g>
				
					<linearGradient gradientTransform="matrix(1 0 0 -1 -488 -1361.502)" x1="538.5127" x2="514.7744" gradientUnits="userSpaceOnUse" y1="-1411.0938" y2="-1411.0938" id="svg4.SVGID_2_">
					<stop offset="0" style="stop-color:#4D4D4D"/>
					<stop offset="1" style="stop-color:#999999"/>
				</linearGradient>
				<path fill="url(#svg4.SVGID_2_)" d="M50.359,48.076c0,0.965-6.758,1.404-12.371,1.404c-3.889,0-10.914-0.348-11.367-1.267      c0,0.446,0,1.502,0,1.661c0,0.725,4.803,1.234,11.357,1.234c6.554,0,12.381-0.643,12.381-1.361      C50.359,49.591,50.359,48.539,50.359,48.076z"/>
				<path fill="#808080" d="M38.49,46.869c6.556,0,11.869,0.584,11.869,1.307c0,0.721-5.313,1.42-11.869,1.42      c-6.701,0-11.869-0.697-11.869-1.42S31.936,46.869,38.49,46.869z"/>
			</g>
			
				<linearGradient gradientTransform="matrix(1 0 0 -1 -488 -1361.502)" x1="529.0771" x2="524.0811" gradientUnits="userSpaceOnUse" y1="-1405.124" y2="-1405.124" id="svg4.SVGID_3_">
				<stop offset="0" style="stop-color:#999999"/>
				<stop offset="0.0417" style="stop-color:#8D8D8D"/>
				<stop offset="0.1617" style="stop-color:#717171"/>
				<stop offset="0.2821" style="stop-color:#5D5D5D"/>
				<stop offset="0.4021" style="stop-color:#515151"/>
				<stop offset="0.5212" style="stop-color:#4D4D4D"/>
				<stop offset="0.6202" style="stop-color:#565656"/>
				<stop offset="0.7817" style="stop-color:#6E6E6E"/>
				<stop offset="0.9844" style="stop-color:#969696"/>
				<stop offset="1" style="stop-color:#999999"/>
			</linearGradient>
			<path fill="url(#svg4.SVGID_3_)" d="M41.045,48.459c0,0-1.477,0.096-2.498,0.096s-2.499-0.096-2.499-0.096v-9.768h4.997V48.459z"/>
		</g>
		<g id="svg4.Display">
			<g>
				
					<radialGradient gradientTransform="matrix(1.15 0 0 -1 -453.9686 -1361.502)" id="svg4.SVGID_4_" r="24.0778" cx="419.1797" gradientUnits="userSpaceOnUse" cy="-1378.9521">
					<stop offset="0" style="stop-color:#F2F2F2"/>
					<stop offset="1" style="stop-color:#666666"/>
				</radialGradient>
				<path fill="url(#svg4.SVGID_4_)" d="M12.764,9.684c0-1.1,0.9-2,2-2H63.01c1.1,0,2,0.9,2,2v30.073c0,1.101-0.9,2-2,2H14.764      c-1.1,0-2-0.899-2-2V9.684z"/>
				
					<path stroke-linecap="round" fill="none" stroke-linejoin="round" d="      M12.764,9.684c0-1.1,0.9-2,2-2H63.01c1.1,0,2,0.9,2,2v30.073c0,1.101-0.9,2-2,2H14.764c-1.1,0-2-0.899-2-2V9.684z" stroke="#666666" stroke-width="0.2436" stroke-miterlimit="10"/>
			</g>
			<g>
				
					<radialGradient gradientTransform="matrix(1.1935 0 0 -1 -444.2062 -1361.502)" gradientUnits="userSpaceOnUse" r="53.3339" cx="405.4619" id="svg4.SVGID_5_" cy="-1370.8037" fx="447.4194" fy="-1377.9913">
					<stop offset="0" style="stop-color:#4D4D4D"/>
					<stop offset="1" style="stop-color:#999999"/>
				</radialGradient>
				<path fill="url(#svg4.SVGID_5_)" d="M13.786,10.705c0-1.1,0.9-2,2-2h46.429c1.1,0,2,0.9,2,2V38.51c0,1.1-0.9,2-2,2H15.786      c-1.1,0-2-0.9-2-2V10.705z"/>
			</g>
			<g>
				
					<radialGradient gradientTransform="matrix(1.1923 0 0 -1 -444.4653 -1361.502)" id="svg4.SVGID_6_" r="34.1874" cx="406.25" gradientUnits="userSpaceOnUse" cy="-1370.8877">
					<stop offset="0" style="stop-color:#9CD7FF"/>
					<stop offset="1" style="stop-color:#3C89C9"/>
				</radialGradient>
				<path fill="url(#svg4.SVGID_6_)" d="M14.354,11.16c0-1.1,0.9-2,2-2h45.294c1.1,0,2,0.9,2,2v26.895c0,1.1-0.9,2-2,2H16.354      c-1.1,0-2-0.9-2-2V11.16z"/>
			</g>
			<path fill="#F2F2F2" opacity="0.24" d="M14.354,32.498V11.16c0-1.1,0.9-2,2-2h45.294c1.1,0,2,0.9,2,2v13.539l-23.164,4.94     c-1.064,0.273-2.836,0.547-3.935,0.609L14.354,32.498z"/>
		</g>
	</g>
	<g id="svg4.Mouse">
		<g id="svg4.XMLID_1_">
			<g>
				<path fill="#C9C9C9" d="M62.088,54.158c-0.003-0.002-0.005-0.002-0.007,0c-0.188-0.061-0.429-0.254-0.702-0.482      C61.646,53.83,61.889,53.998,62.088,54.158z"/>
				
					<radialGradient gradientTransform="matrix(1 0 0 1 -390.4004 -1211.6016)" id="svg4.SVGID_7_" r="6.3766" cx="454.1748" gradientUnits="userSpaceOnUse" cy="1266.7139">
					<stop offset="0.1939" style="stop-color:#C9C9C9"/>
					<stop offset="0.3299" style="stop-color:#C6C6C6"/>
					<stop offset="0.4405" style="stop-color:#BCBCBC"/>
					<stop offset="0.5421" style="stop-color:#ABABAB"/>
					<stop offset="0.6378" style="stop-color:#939393"/>
					<stop offset="0.697" style="stop-color:#808080"/>
				</radialGradient>
				<path fill="url(#svg4.SVGID_7_)" d="M62.081,54.158c0.005,0.002,0.007,0.002,0.009,0.002c0.002,0.004,0.006,0.004,0.006,0.004      c0.084,0.023,0.153,0.021,0.213-0.021c0.017-0.008,0.026-0.021,0.037-0.041c0.604-0.119,1.329-0.154,2.197-0.086      c2.032,1.545,3.77,4.625,1.18,5.801c-2.048,0.929-3.543,0.783-4.722-0.485c-0.624-0.675-1.239-1.47-1.729-2.265      C59.537,55.932,60.166,54.623,62.081,54.158z"/>
				
					<radialGradient gradientTransform="matrix(0.9761 0.2173 -0.1478 0.6641 -318.8444 -1029.3551)" id="svg4.SVGID_8_" r="3.8245" cx="606.8809" gradientUnits="userSpaceOnUse" cy="1434.1973">
					<stop offset="0.1939" style="stop-color:#C9C9C9"/>
					<stop offset="0.3739" style="stop-color:#C6C6C6"/>
					<stop offset="0.5203" style="stop-color:#BCBCBC"/>
					<stop offset="0.6549" style="stop-color:#ABABAB"/>
					<stop offset="0.7816" style="stop-color:#939494"/>
					<stop offset="0.8364" style="stop-color:#868787"/>
				</radialGradient>
				<path fill="url(#svg4.SVGID_8_)" d="M59.271,57.066c-0.893-1.438-1.355-2.869-0.664-3.533c0.244-0.236,0.539-0.422,0.863-0.559      c0.6,0.051,1.307,0.346,1.9,0.691c0.002,0,0.005,0.004,0.007,0.006c0.272,0.229,0.519,0.426,0.702,0.482      C60.166,54.623,59.537,55.932,59.271,57.066z"/>
				
					<radialGradient gradientTransform="matrix(1 0 0 1 -390.4004 -1211.6016)" id="svg4.SVGID_9_" r="3.928" cx="452.0352" gradientUnits="userSpaceOnUse" cy="1266.8896">
					<stop offset="0.1939" style="stop-color:#C9C9C9"/>
					<stop offset="0.3496" style="stop-color:#C6C6C6"/>
					<stop offset="0.4761" style="stop-color:#BCBCBC"/>
					<stop offset="0.5925" style="stop-color:#ABABAB"/>
					<stop offset="0.702" style="stop-color:#939393"/>
					<stop offset="0.7697" style="stop-color:#808080"/>
				</radialGradient>
				<path fill="url(#svg4.SVGID_9_)" d="M59.471,52.977c1.353-0.564,3.287-0.266,4.963,0.955c0.035,0.025,0.073,0.055,0.109,0.084      c-0.867-0.068-1.818-0.033-2.427,0.086c-0.109-0.105-0.763-0.449-0.744-0.434C60.775,53.32,60.068,53.025,59.471,52.977z"/>
			</g>
			<g>
				<path fill="none" stroke-width="0.1136" d="M59.471,52.977      c1.353-0.564,3.287-0.266,4.963,0.955c0.035,0.025,0.073,0.055,0.109,0.084c2.032,1.545,3.77,4.627,1.18,5.801      c-2.048,0.93-3.543,0.785-4.722-0.484c-0.624-0.676-1.239-1.471-1.729-2.264c-0.892-1.438-1.354-2.871-0.664-3.533      C58.852,53.297,59.146,53.111,59.471,52.977z" stroke-miterlimit="10" stroke="#717171" stroke-linecap="round"/>
				<path fill="none" stroke-width="0.1136" d="M62.088,54.158      c0.083-0.021,0.168-0.041,0.258-0.057c0.604-0.119,1.329-0.154,2.197-0.086" stroke-miterlimit="10" stroke="#717171" stroke-linecap="round"/>
				<path fill="none" stroke-width="0.1136" d="M59.27,57.078      c0-0.002,0.002-0.008,0.002-0.012c0.269-1.135,0.896-2.441,2.813-2.908" stroke-miterlimit="10" stroke="#717171" stroke-linecap="round"/>
				<path fill="none" stroke-width="0.1136" d="M61.372,53.668      c-0.597-0.35-1.306-0.643-1.901-0.693" stroke-miterlimit="10" stroke="#717171" stroke-linecap="round"/>
				<path fill="none" stroke-width="0.1136" d="M62.09,54.16      c0-0.002,0-0.002-0.002-0.002c-0.199-0.16-0.441-0.328-0.709-0.482" stroke-miterlimit="10" stroke="#717171" stroke-linecap="round"/>
				<path fill="#4D4D4D" d="M61.57,53.498c0.354,0.264,0.438,0.48,0.548,0.604c-0.091,0.018-0.173,0.033-0.259,0.059      c-0.355-0.393-0.996-0.666-0.955-0.727C60.999,53.291,61.374,53.354,61.57,53.498z"/>
			</g>
		</g>
	</g>
</g>
</svg>
      </g>
    </g>
    <g fill="white" text-rendering="geometricPrecision" shape-rendering="geometricPrecision" transform="matrix(1,0,0,1,-419,-272)" stroke="white">
      <rect x="841.375" width="93.625" height="221.375" y="413.75" clip-path="url(#clipPath2)" stroke="none"/>
    </g>
    <g transform="matrix(1,0,0,1,-419,-272)" fill="rgb(255,140,0)" text-rendering="geometricPrecision" shape-rendering="geometricPrecision" stroke-dasharray="0,4" stroke="rgb(255,140,0)" stroke-width="2">
      <rect fill="none" x="841.375" width="93.625" height="221.375" y="413.75" clip-path="url(#clipPath2)"/>
    </g>
    <g text-rendering="geometricPrecision" stroke-miterlimit="1.45" shape-rendering="geometricPrecision" transform="matrix(1,0,0,1,-419,-272)" stroke-linecap="butt">
      <text x="866.0127" xml:space="preserve" y="426.8887" clip-path="url(#clipPath2)" stroke="none">Service</text>
    </g>
    <g fill="white" text-rendering="geometricPrecision" shape-rendering="geometricPrecision" transform="matrix(1,0,0,1,-419,-272)" stroke="white">
      <rect x="435" width="516.125" height="95.75" y="287.5" clip-path="url(#clipPath2)" stroke="none"/>
    </g>
    <g transform="matrix(1,0,0,1,-419,-272)" fill="rgb(255,140,0)" text-rendering="geometricPrecision" shape-rendering="geometricPrecision" stroke-dasharray="0,4" stroke="rgb(255,140,0)" stroke-width="2">
      <rect fill="none" x="435" width="516.125" height="95.75" y="287.5" clip-path="url(#clipPath2)"/>
    </g>
    <g text-rendering="geometricPrecision" stroke-miterlimit="1.45" shape-rendering="geometricPrecision" transform="matrix(1,0,0,1,-419,-272)" stroke-linecap="butt">
      <text x="666.0156" xml:space="preserve" y="300.6387" clip-path="url(#clipPath2)" stroke="none">Frontend</text>
    </g>
    <g fill="rgb(255,140,0)" text-rendering="geometricPrecision" shape-rendering="geometricPrecision" transform="matrix(1,0,0,1,-419,-272)" stroke="rgb(255,140,0)">
      <rect x="463.125" width="458.625" height="30" y="309.25" clip-path="url(#clipPath2)" stroke="none"/>
      <rect x="463.125" stroke-linecap="butt" y="309.25" clip-path="url(#clipPath2)" fill="none" width="458.625" height="30"/>
    </g>
    <g text-rendering="geometricPrecision" stroke-miterlimit="1.45" shape-rendering="geometricPrecision" transform="matrix(1,0,0,1,-419,-272)" stroke-linecap="butt">
      <text x="630.0586" xml:space="preserve" y="328.4043" clip-path="url(#clipPath2)" stroke="none">Präsentationsschicht</text>
    </g>
    <g fill="rgb(255,140,0)" text-rendering="geometricPrecision" shape-rendering="geometricPrecision" transform="matrix(1,0,0,1,-419,-272)" stroke="rgb(255,140,0)">
      <rect x="464.25" width="458.125" height="30" y="345.625" clip-path="url(#clipPath2)" stroke="none"/>
      <rect x="464.25" stroke-linecap="butt" y="345.625" clip-path="url(#clipPath2)" fill="none" width="458.125" height="30"/>
    </g>
    <g text-rendering="geometricPrecision" stroke-miterlimit="1.45" shape-rendering="geometricPrecision" transform="matrix(1,0,0,1,-419,-272)" stroke-linecap="butt">
      <text x="669.0225" xml:space="preserve" y="364.7793" clip-path="url(#clipPath2)" stroke="none">UI-Logik</text>
      <path fill="none" d="M629.625 513.625 L629.625 528" stroke-miterlimit="10" clip-path="url(#clipPath2)"/>
      <path d="M629.625 536 L634.625 524 L629.625 527 L624.625 524 Z" stroke-miterlimit="10" clip-path="url(#clipPath2)" stroke="none"/>
      <path fill="none" d="M629.625 566 L629.625 579.5" stroke-miterlimit="10" clip-path="url(#clipPath2)"/>
      <path d="M629.625 587.5 L634.625 575.5 L629.625 578.5 L624.625 575.5 Z" stroke-miterlimit="10" clip-path="url(#clipPath2)" stroke="none"/>
      <path fill="none" d="M633.3125 383.2572 L633.3125 405.8474" stroke-miterlimit="10" clip-path="url(#clipPath2)"/>
      <path d="M633.3125 413.8474 L638.3125 401.8474 L633.3125 404.8474 L628.3125 401.8474 Z" stroke-miterlimit="10" clip-path="url(#clipPath2)" stroke="none"/>
      <path fill="none" d="M888.1875 383.2534 L888.1875 405.7263" stroke-miterlimit="10" clip-path="url(#clipPath2)"/>
      <path d="M888.1875 413.7263 L893.1875 401.7263 L888.1875 404.7263 L883.1875 401.7263 Z" stroke-miterlimit="10" clip-path="url(#clipPath2)" stroke="none"/>
    </g>
  </g>
</svg>
