<?xml version="1.0" encoding="UTF-8"?><svg xmlns="http://www.w3.org/2000/svg" xmlns:xlink="http://www.w3.org/1999/xlink" fill-opacity="1" color-rendering="auto" color-interpolation="auto" text-rendering="auto" stroke="black" stroke-linecap="square" width="598" stroke-miterlimit="10" shape-rendering="auto" stroke-opacity="1" fill="black" stroke-dasharray="none" font-weight="normal" stroke-width="1" height="447" font-family="'Dialog'" font-style="normal" stroke-linejoin="miter" font-size="12px" stroke-dashoffset="0" image-rendering="auto">
  <!--Generated by ySVG 2.5-->
  <defs id="genericDefs"/>
  <g>
    <defs id="defs1">
      <clipPath clipPathUnits="userSpaceOnUse" id="clipPath1">
        <path d="M0 0 L598 0 L598 447 L0 447 L0 0 Z"/>
      </clipPath>
      <clipPath clipPathUnits="userSpaceOnUse" id="clipPath2">
        <path d="M172 99 L770 99 L770 546 L172 546 L172 99 Z"/>
      </clipPath>
    </defs>
    <g fill="white" text-rendering="geometricPrecision" shape-rendering="geometricPrecision" transform="translate(-172,-99)" stroke="white">
      <rect x="172" width="598" height="447" y="99" clip-path="url(#clipPath2)" stroke="none"/>
    </g>
    <g text-rendering="geometricPrecision" stroke-miterlimit="1.45" shape-rendering="geometricPrecision" transform="matrix(1,0,0,1,-172,-99)" stroke-linecap="butt">
      <rect fill="none" x="187" width="568" height="159" y="114" clip-path="url(#clipPath2)"/>
      <rect fill="none" x="230" width="136" height="103" y="142" clip-path="url(#clipPath2)"/>
      <text x="257.79" xml:space="preserve" y="198.0352" clip-path="url(#clipPath2)" font-family="sans-serif" stroke="none">Anwendung 1</text>
    </g>
    <g fill="rgb(255,204,0)" text-rendering="geometricPrecision" shape-rendering="geometricPrecision" transform="matrix(1,0,0,1,-172,-99)" stroke="rgb(255,204,0)">
      <rect x="243.5" width="109" height="30" y="209" clip-path="url(#clipPath2)" stroke="none"/>
    </g>
    <g text-rendering="geometricPrecision" stroke-miterlimit="1.45" shape-rendering="geometricPrecision" transform="matrix(1,0,0,1,-172,-99)" stroke-linecap="butt">
      <rect fill="none" x="243.5" width="109" height="30" y="209" clip-path="url(#clipPath2)"/>
      <text x="247.5801" xml:space="preserve" y="228.5352" clip-path="url(#clipPath2)" font-family="sans-serif" stroke="none">PDF-Generierung</text>
      <rect fill="none" x="396" width="136" height="103" y="142" clip-path="url(#clipPath2)"/>
      <text x="423.79" xml:space="preserve" y="198.0352" clip-path="url(#clipPath2)" font-family="sans-serif" stroke="none">Anwendung 2</text>
    </g>
    <g fill="rgb(255,204,0)" text-rendering="geometricPrecision" shape-rendering="geometricPrecision" transform="matrix(1,0,0,1,-172,-99)" stroke="rgb(255,204,0)">
      <rect x="409.5" width="109" height="30" y="209" clip-path="url(#clipPath2)" stroke="none"/>
    </g>
    <g text-rendering="geometricPrecision" stroke-miterlimit="1.45" shape-rendering="geometricPrecision" transform="matrix(1,0,0,1,-172,-99)" stroke-linecap="butt">
      <rect fill="none" x="409.5" width="109" height="30" y="209" clip-path="url(#clipPath2)"/>
      <text x="413.5801" xml:space="preserve" y="228.5352" clip-path="url(#clipPath2)" font-family="sans-serif" stroke="none">PDF-Generierung</text>
      <rect fill="none" x="569" width="136" height="103" y="142" clip-path="url(#clipPath2)"/>
      <text x="596.79" xml:space="preserve" y="198.0352" clip-path="url(#clipPath2)" font-family="sans-serif" stroke="none">Anwendung 3</text>
    </g>
    <g fill="rgb(255,204,0)" text-rendering="geometricPrecision" shape-rendering="geometricPrecision" transform="matrix(1,0,0,1,-172,-99)" stroke="rgb(255,204,0)">
      <rect x="582.5" width="109" height="30" y="209" clip-path="url(#clipPath2)" stroke="none"/>
    </g>
    <g text-rendering="geometricPrecision" stroke-miterlimit="1.45" shape-rendering="geometricPrecision" transform="matrix(1,0,0,1,-172,-99)" stroke-linecap="butt">
      <rect fill="none" x="582.5" width="109" height="30" y="209" clip-path="url(#clipPath2)"/>
      <text x="586.5801" xml:space="preserve" y="228.5352" clip-path="url(#clipPath2)" font-family="sans-serif" stroke="none">PDF-Generierung</text>
      <rect fill="none" x="187" width="568" height="228" y="303" clip-path="url(#clipPath2)"/>
    </g>
    <g fill="rgb(255,204,0)" text-rendering="geometricPrecision" shape-rendering="geometricPrecision" transform="matrix(1,0,0,1,-172,-99)" stroke="rgb(255,204,0)">
      <rect x="230" width="136" height="46" y="331" clip-path="url(#clipPath2)" stroke="none"/>
    </g>
    <g text-rendering="geometricPrecision" stroke-miterlimit="1.45" shape-rendering="geometricPrecision" transform="matrix(1,0,0,1,-172,-99)" stroke-linecap="butt">
      <rect fill="none" x="230" width="136" height="46" y="331" clip-path="url(#clipPath2)"/>
      <text x="257.79" xml:space="preserve" y="358.5352" clip-path="url(#clipPath2)" font-family="sans-serif" stroke="none">Anwendung 1</text>
    </g>
    <g fill="rgb(255,204,0)" text-rendering="geometricPrecision" shape-rendering="geometricPrecision" transform="matrix(1,0,0,1,-172,-99)" stroke="rgb(255,204,0)">
      <rect x="396" width="136" height="46" y="331" clip-path="url(#clipPath2)" stroke="none"/>
    </g>
    <g text-rendering="geometricPrecision" stroke-miterlimit="1.45" shape-rendering="geometricPrecision" transform="matrix(1,0,0,1,-172,-99)" stroke-linecap="butt">
      <rect fill="none" x="396" width="136" height="46" y="331" clip-path="url(#clipPath2)"/>
      <text x="423.79" xml:space="preserve" y="358.5352" clip-path="url(#clipPath2)" font-family="sans-serif" stroke="none">Anwendung 2</text>
    </g>
    <g fill="rgb(255,204,0)" text-rendering="geometricPrecision" shape-rendering="geometricPrecision" transform="matrix(1,0,0,1,-172,-99)" stroke="rgb(255,204,0)">
      <rect x="569" width="136" height="46" y="331" clip-path="url(#clipPath2)" stroke="none"/>
    </g>
    <g text-rendering="geometricPrecision" stroke-miterlimit="1.45" shape-rendering="geometricPrecision" transform="matrix(1,0,0,1,-172,-99)" stroke-linecap="butt">
      <rect fill="none" x="569" width="136" height="46" y="331" clip-path="url(#clipPath2)"/>
      <text x="596.79" xml:space="preserve" y="358.5352" clip-path="url(#clipPath2)" font-family="sans-serif" stroke="none">Anwendung 3</text>
    </g>
    <g fill="rgb(255,204,0)" text-rendering="geometricPrecision" shape-rendering="geometricPrecision" transform="matrix(1,0,0,1,-172,-99)" stroke="rgb(255,204,0)">
      <rect x="396" width="136" height="46" y="461" clip-path="url(#clipPath2)" stroke="none"/>
    </g>
    <g text-rendering="geometricPrecision" stroke-miterlimit="1.45" shape-rendering="geometricPrecision" transform="matrix(1,0,0,1,-172,-99)" stroke-linecap="butt">
      <rect fill="none" x="396" width="136" height="46" y="461" clip-path="url(#clipPath2)"/>
      <text x="429.2158" xml:space="preserve" y="488.5352" clip-path="url(#clipPath2)" font-family="sans-serif" stroke="none">PDF-Service</text>
      <path fill="none" d="M327.3692 377 L428.3323 456.0675" clip-path="url(#clipPath2)"/>
      <path d="M434.6308 461 L428.266 449.6647 L427.545 455.4509 L422.1003 457.5377 Z" clip-path="url(#clipPath2)" stroke="none"/>
      <path fill="none" d="M464 377 L464 453" clip-path="url(#clipPath2)"/>
      <path d="M464 461 L469 449 L464 452 L459 449 Z" clip-path="url(#clipPath2)" stroke="none"/>
      <path fill="none" d="M606.3923 377 L501.0033 456.1941" clip-path="url(#clipPath2)"/>
      <path d="M494.6077 461 L507.2047 457.7884 L501.8027 455.5934 L501.1974 449.7939 Z" clip-path="url(#clipPath2)" stroke="none"/>
    </g>
  </g>
</svg>
