<?xml version="1.0" encoding="UTF-8"?><svg xmlns="http://www.w3.org/2000/svg" xmlns:xlink="http://www.w3.org/1999/xlink" fill-opacity="1" color-rendering="auto" color-interpolation="auto" text-rendering="auto" stroke="black" stroke-linecap="square" width="1409" stroke-miterlimit="10" shape-rendering="auto" stroke-opacity="1" fill="black" stroke-dasharray="none" font-weight="normal" stroke-width="1" height="819" font-family="'Dialog'" font-style="normal" stroke-linejoin="miter" font-size="12px" stroke-dashoffset="0" image-rendering="auto">
  <!--Generated by ySVG 2.5-->
  <defs id="genericDefs"/>
  <g>
    <g fill="white" text-rendering="geometricPrecision" shape-rendering="geometricPrecision" transform="translate(-90,-131)" stroke="white">
      <rect x="90" width="1409" height="819" y="131" clip-path="url(#clipPath2)" stroke="none"/>
    </g>
    <g text-rendering="geometricPrecision" stroke-miterlimit="1.45" shape-rendering="geometricPrecision" transform="matrix(1,0,0,1,-90,-131)" stroke-linecap="butt">
      <rect fill="none" x="105" width="561" height="394" y="146" clip-path="url(#clipPath2)"/>
      <text x="345.8701" xml:space="preserve" y="333.4023" clip-path="url(#clipPath2)" font-family="sans-serif" stroke="none">Produktsuche</text>
      <text x="383.6016" xml:space="preserve" y="347.5352" clip-path="url(#clipPath2)" font-family="sans-serif" stroke="none"> </text>
      <text x="331.5352" xml:space="preserve" y="361.668" clip-path="url(#clipPath2)" font-family="sans-serif" stroke="none">- Produkte suchen</text>
    </g>
    <g text-rendering="geometricPrecision" shape-rendering="geometricPrecision" transform="matrix(1,0,0,1,123.6385,326.669)">
      <g clip-path="url(#clipPath3)">
        <svg xml:space="preserve" opacity="1" writing-mode="lr-tb" stop-color="rgb(0, 0, 0)" shape-rendering="auto" glyph-orientation-horizontal="0deg" color-profile="auto" lighting-color="rgb(255, 255, 255)" color="rgb(0, 0, 0)" font-weight="400" alignment-baseline="auto" font-style="normal" version="1.1" color-interpolation-filters="linearrgb" text-anchor="start" stroke-linecap="butt" color-interpolation="srgb" font-variant="normal" word-spacing="normal" fill-opacity="1" text-rendering="auto" clip-path="none" text-decoration="none" letter-spacing="normal" viewBox="-0.875 -0.887 41 48" glyph-orientation-vertical="auto" display="inline" font-size-adjust="none" overflow="hidden" fill="rgb(0, 0, 0)" font-stretch="normal" stroke-dasharray="none" stroke-miterlimit="4" stop-opacity="1" color-rendering="auto" font-size="12" pointer-events="visiblepainted" mask="none" direction="ltr" baseline-shift="baseline" enable-background="new -0.875 -0.887 41 48" fill-rule="nonzero" image-rendering="auto" stroke-dashoffset="0" width="41px" marker-end="none" clip="auto" cursor="auto" stroke="none" filter="none" visibility="visible" kerning="auto" stroke-width="1" font-family="&quot;Arial&quot;,&quot;Helvetica&quot;,sans-serif" flood-opacity="1" clip-rule="nonzero" src="none" height="48px" unicode-bidi="normal" stroke-linejoin="miter" stroke-opacity="1" flood-color="rgb(0, 0, 0)" dominant-baseline="auto" marker-start="none" x="0px" marker-mid="none" y="0px">
<defs>
<clipPath clipPathUnits="userSpaceOnUse" id="clipPath1"><path d="M0 0 L1409 0 L1409 819 L0 819 L0 0 Z"/></clipPath><clipPath clipPathUnits="userSpaceOnUse" id="clipPath2"><path d="M90 131 L1499 131 L1499 950 L90 950 L90 131 Z"/></clipPath><clipPath clipPathUnits="userSpaceOnUse" id="clipPath3"><path d="M-123.6385 -326.669 L1285.3615 -326.669 L1285.3615 492.331 L-123.6385 492.331 L-123.6385 -326.669 Z"/></clipPath><clipPath clipPathUnits="userSpaceOnUse" id="clipPath4"><path d="M-65.6385 -650.669 L1343.3615 -650.669 L1343.3615 168.331 L-65.6385 168.331 L-65.6385 -650.669 Z"/></clipPath><clipPath clipPathUnits="userSpaceOnUse" id="clipPath5"><path d="M-835.6385 -375.669 L573.3615 -375.669 L573.3615 443.331 L-835.6385 443.331 L-835.6385 -375.669 Z"/></clipPath><clipPath clipPathUnits="userSpaceOnUse" id="clipPath6"><path d="M-1038.4095 -760.9825 L371.2605 -760.9825 L371.2605 57.1128 L-1038.4095 57.1128 L-1038.4095 -760.9825 Z"/></clipPath></defs>
<linearGradient gradientTransform="matrix(1 0 0 -1 -642.8008 -939.4756)" x1="642.8008" x2="682.0508" gradientUnits="userSpaceOnUse" y1="-979.1445" y2="-979.1445" id="svg1.SVGID_1_">
	<stop offset="0" style="stop-color:#3C89C9"/>
	<stop offset="0.1482" style="stop-color:#60A6DD"/>
	<stop offset="0.3113" style="stop-color:#81C1F0"/>
	<stop offset="0.4476" style="stop-color:#95D1FB"/>
	<stop offset="0.5394" style="stop-color:#9CD7FF"/>
	<stop offset="0.636" style="stop-color:#98D4FD"/>
	<stop offset="0.7293" style="stop-color:#8DCAF6"/>
	<stop offset="0.8214" style="stop-color:#79BBEB"/>
	<stop offset="0.912" style="stop-color:#5EA5DC"/>
	<stop offset="1" style="stop-color:#3C89C9"/>
</linearGradient>
<path fill="url(#svg1.SVGID_1_)" d="M19.625,36.763C8.787,36.763,0,34.888,0,32.575v10c0,2.313,8.787,4.188,19.625,4.188  c10.839,0,19.625-1.875,19.625-4.188v-10C39.25,34.888,30.464,36.763,19.625,36.763z"/>
<linearGradient gradientTransform="matrix(1 0 0 -1 -642.8008 -939.4756)" x1="642.8008" x2="682.0508" gradientUnits="userSpaceOnUse" y1="-973.1445" y2="-973.1445" id="svg1.SVGID_2_">
	<stop offset="0" style="stop-color:#9CD7FF"/>
	<stop offset="0.0039" style="stop-color:#9DD7FF"/>
	<stop offset="0.2273" style="stop-color:#BDE5FF"/>
	<stop offset="0.4138" style="stop-color:#D1EEFF"/>
	<stop offset="0.5394" style="stop-color:#D9F1FF"/>
	<stop offset="0.6155" style="stop-color:#D5EFFE"/>
	<stop offset="0.6891" style="stop-color:#C9E7FA"/>
	<stop offset="0.7617" style="stop-color:#B6DAF3"/>
	<stop offset="0.8337" style="stop-color:#9AC8EA"/>
	<stop offset="0.9052" style="stop-color:#77B0DD"/>
	<stop offset="0.9754" style="stop-color:#4D94CF"/>
	<stop offset="1" style="stop-color:#3C89C9"/>
</linearGradient>
<path fill="url(#svg1.SVGID_2_)" d="M19.625,36.763c10.839,0,19.625-1.875,19.625-4.188l-1.229-2c0,2.168-8.235,3.927-18.396,3.927  c-9.481,0-17.396-1.959-18.396-3.927l-1.229,2C0,34.888,8.787,36.763,19.625,36.763z"/>
<path fill="#3C89C9" d="M19.625,26.468c10.16,0,19.625,2.775,19.625,2.775c-0.375,2.721-5.367,5.438-19.554,5.438  c-12.125,0-18.467-2.484-19.541-4.918C-0.127,29.125,9.465,26.468,19.625,26.468z"/>
<linearGradient gradientTransform="matrix(1 0 0 -1 -642.8008 -939.4756)" x1="642.8008" x2="682.0508" gradientUnits="userSpaceOnUse" y1="-965.6948" y2="-965.6948" id="svg1.SVGID_3_">
	<stop offset="0" style="stop-color:#3C89C9"/>
	<stop offset="0.1482" style="stop-color:#60A6DD"/>
	<stop offset="0.3113" style="stop-color:#81C1F0"/>
	<stop offset="0.4476" style="stop-color:#95D1FB"/>
	<stop offset="0.5394" style="stop-color:#9CD7FF"/>
	<stop offset="0.636" style="stop-color:#98D4FD"/>
	<stop offset="0.7293" style="stop-color:#8DCAF6"/>
	<stop offset="0.8214" style="stop-color:#79BBEB"/>
	<stop offset="0.912" style="stop-color:#5EA5DC"/>
	<stop offset="1" style="stop-color:#3C89C9"/>
</linearGradient>
<path fill="url(#svg1.SVGID_3_)" d="M19.625,23.313C8.787,23.313,0,21.438,0,19.125v10c0,2.313,8.787,4.188,19.625,4.188  c10.839,0,19.625-1.875,19.625-4.188v-10C39.25,21.438,30.464,23.313,19.625,23.313z"/>
<linearGradient gradientTransform="matrix(1 0 0 -1 -642.8008 -939.4756)" x1="642.8008" x2="682.0508" gradientUnits="userSpaceOnUse" y1="-959.6948" y2="-959.6948" id="svg1.SVGID_4_">
	<stop offset="0" style="stop-color:#9CD7FF"/>
	<stop offset="0.0039" style="stop-color:#9DD7FF"/>
	<stop offset="0.2273" style="stop-color:#BDE5FF"/>
	<stop offset="0.4138" style="stop-color:#D1EEFF"/>
	<stop offset="0.5394" style="stop-color:#D9F1FF"/>
	<stop offset="0.6155" style="stop-color:#D5EFFE"/>
	<stop offset="0.6891" style="stop-color:#C9E7FA"/>
	<stop offset="0.7617" style="stop-color:#B6DAF3"/>
	<stop offset="0.8337" style="stop-color:#9AC8EA"/>
	<stop offset="0.9052" style="stop-color:#77B0DD"/>
	<stop offset="0.9754" style="stop-color:#4D94CF"/>
	<stop offset="1" style="stop-color:#3C89C9"/>
</linearGradient>
<path fill="url(#svg1.SVGID_4_)" d="M19.625,23.313c10.839,0,19.625-1.875,19.625-4.188l-1.229-2c0,2.168-8.235,3.926-18.396,3.926  c-9.481,0-17.396-1.959-18.396-3.926l-1.229,2C0,21.438,8.787,23.313,19.625,23.313z"/>
<path fill="#3C89C9" d="M19.476,13.019c10.161,0,19.625,2.775,19.625,2.775c-0.375,2.721-5.367,5.438-19.555,5.438  c-12.125,0-18.467-2.485-19.541-4.918C-0.277,15.674,9.316,13.019,19.476,13.019z"/>
<linearGradient gradientTransform="matrix(1 0 0 -1 -642.8008 -939.4756)" x1="642.8008" x2="682.0508" gradientUnits="userSpaceOnUse" y1="-952.4946" y2="-952.4946" id="svg1.SVGID_5_">
	<stop offset="0" style="stop-color:#3C89C9"/>
	<stop offset="0.1482" style="stop-color:#60A6DD"/>
	<stop offset="0.3113" style="stop-color:#81C1F0"/>
	<stop offset="0.4476" style="stop-color:#95D1FB"/>
	<stop offset="0.5394" style="stop-color:#9CD7FF"/>
	<stop offset="0.636" style="stop-color:#98D4FD"/>
	<stop offset="0.7293" style="stop-color:#8DCAF6"/>
	<stop offset="0.8214" style="stop-color:#79BBEB"/>
	<stop offset="0.912" style="stop-color:#5EA5DC"/>
	<stop offset="1" style="stop-color:#3C89C9"/>
</linearGradient>
<path fill="url(#svg1.SVGID_5_)" d="M19.625,10.113C8.787,10.113,0,8.238,0,5.925v10c0,2.313,8.787,4.188,19.625,4.188  c10.839,0,19.625-1.875,19.625-4.188v-10C39.25,8.238,30.464,10.113,19.625,10.113z"/>
<linearGradient gradientTransform="matrix(1 0 0 -1 -642.8008 -939.4756)" x1="642.8008" x2="682.0508" gradientUnits="userSpaceOnUse" y1="-946.4946" y2="-946.4946" id="svg1.SVGID_6_">
	<stop offset="0" style="stop-color:#9CD7FF"/>
	<stop offset="0.0039" style="stop-color:#9DD7FF"/>
	<stop offset="0.2273" style="stop-color:#BDE5FF"/>
	<stop offset="0.4138" style="stop-color:#D1EEFF"/>
	<stop offset="0.5394" style="stop-color:#D9F1FF"/>
	<stop offset="0.6155" style="stop-color:#D5EFFE"/>
	<stop offset="0.6891" style="stop-color:#C9E7FA"/>
	<stop offset="0.7617" style="stop-color:#B6DAF3"/>
	<stop offset="0.8337" style="stop-color:#9AC8EA"/>
	<stop offset="0.9052" style="stop-color:#77B0DD"/>
	<stop offset="0.9754" style="stop-color:#4D94CF"/>
	<stop offset="1" style="stop-color:#3C89C9"/>
</linearGradient>
<path fill="url(#svg1.SVGID_6_)" d="M19.625,10.113c10.839,0,19.625-1.875,19.625-4.188l-1.229-2c0,2.168-8.235,3.926-18.396,3.926  c-9.481,0-17.396-1.959-18.396-3.926L0,5.925C0,8.238,8.787,10.113,19.625,10.113z"/>
<linearGradient gradientTransform="matrix(1 0 0 -1 -642.8008 -939.4756)" x1="644.0293" x2="680.8223" gradientUnits="userSpaceOnUse" y1="-943.4014" y2="-943.4014" id="svg1.SVGID_7_">
	<stop offset="0" style="stop-color:#9CD7FF"/>
	<stop offset="1" style="stop-color:#3C89C9"/>
</linearGradient>
<ellipse rx="18.396" fill="url(#svg1.SVGID_7_)" ry="3.926" cx="19.625" cy="3.926"/>
<path fill="#FFFFFF" d="M31.04,45.982c0,0-4.354,0.664-7.29,0.781  c-3.125,0.125-8.952,0-8.952,0l-2.384-10.292l0.044-2.108l-1.251-1.154L9.789,23.024l-0.082-0.119L9.5,20.529l-1.65-1.254  L5.329,8.793c0,0,4.213,0.903,7.234,1.07s8.375,0.25,8.375,0.25l3,9.875l-0.25,1.313l1.063,2.168l2.312,9.645l-0.521,1.416  l1.46,1.834L31.04,45.982z" enable-background="new    " opacity="0.24"/>
</svg>
      </g>
    </g>
    <g text-rendering="geometricPrecision" stroke-miterlimit="1.45" shape-rendering="geometricPrecision" transform="matrix(1,0,0,1,-90,-131)" stroke-linecap="butt">
      <rect fill="none" x="105" width="585" height="275" y="594" clip-path="url(#clipPath2)"/>
      <text x="366.1084" xml:space="preserve" y="686.5703" clip-path="url(#clipPath2)" font-family="sans-serif" stroke="none">Warenkorb</text>
      <text x="395.6016" xml:space="preserve" y="700.7031" clip-path="url(#clipPath2)" font-family="sans-serif" stroke="none"> </text>
      <text x="307.6494" xml:space="preserve" y="714.8359" clip-path="url(#clipPath2)" font-family="sans-serif" stroke="none">- Produkte in Warenkorb legen</text>
      <text x="332.4785" xml:space="preserve" y="728.9688" clip-path="url(#clipPath2)" font-family="sans-serif" stroke="none">- Warenkorb anzeigen</text>
      <text x="341.8389" xml:space="preserve" y="743.1016" clip-path="url(#clipPath2)" font-family="sans-serif" stroke="none">- Produkte löschen</text>
      <text x="256.0488" xml:space="preserve" y="757.2344" clip-path="url(#clipPath2)" font-family="sans-serif" stroke="none">- Bestellung starten -&gt; Bestellung wird angelegt</text>
      <text x="268.0078" xml:space="preserve" y="771.3672" clip-path="url(#clipPath2)" font-family="sans-serif" stroke="none">- Bestelleung bearbeiten (Lieferadresse usw)</text>
      <text x="298.6787" xml:space="preserve" y="785.5" clip-path="url(#clipPath2)" font-family="sans-serif" stroke="none">- Bestellung anzeigen (mit Status)</text>
    </g>
    <g text-rendering="geometricPrecision" shape-rendering="geometricPrecision" transform="matrix(1,0,0,1,65.6385,650.669)">
      <g clip-path="url(#clipPath4)">
        <svg xml:space="preserve" opacity="1" writing-mode="lr-tb" stop-color="rgb(0, 0, 0)" shape-rendering="auto" glyph-orientation-horizontal="0deg" color-profile="auto" lighting-color="rgb(255, 255, 255)" color="rgb(0, 0, 0)" font-weight="400" alignment-baseline="auto" font-style="normal" version="1.1" color-interpolation-filters="linearrgb" text-anchor="start" stroke-linecap="butt" color-interpolation="srgb" font-variant="normal" word-spacing="normal" fill-opacity="1" text-rendering="auto" clip-path="none" text-decoration="none" letter-spacing="normal" viewBox="-0.875 -0.887 41 48" glyph-orientation-vertical="auto" display="inline" font-size-adjust="none" overflow="hidden" fill="rgb(0, 0, 0)" font-stretch="normal" stroke-dasharray="none" stroke-miterlimit="4" stop-opacity="1" color-rendering="auto" font-size="12" pointer-events="visiblepainted" mask="none" direction="ltr" baseline-shift="baseline" enable-background="new -0.875 -0.887 41 48" fill-rule="nonzero" image-rendering="auto" stroke-dashoffset="0" width="41px" marker-end="none" clip="auto" cursor="auto" stroke="none" filter="none" visibility="visible" kerning="auto" stroke-width="1" font-family="&quot;Arial&quot;,&quot;Helvetica&quot;,sans-serif" flood-opacity="1" clip-rule="nonzero" src="none" height="48px" unicode-bidi="normal" stroke-linejoin="miter" stroke-opacity="1" flood-color="rgb(0, 0, 0)" dominant-baseline="auto" marker-start="none" x="0px" marker-mid="none" y="0px">
<defs>
</defs>
<linearGradient gradientTransform="matrix(1 0 0 -1 -642.8008 -939.4756)" x1="642.8008" x2="682.0508" gradientUnits="userSpaceOnUse" y1="-979.1445" y2="-979.1445" id="svg2.SVGID_1_">
	<stop offset="0" style="stop-color:#3C89C9"/>
	<stop offset="0.1482" style="stop-color:#60A6DD"/>
	<stop offset="0.3113" style="stop-color:#81C1F0"/>
	<stop offset="0.4476" style="stop-color:#95D1FB"/>
	<stop offset="0.5394" style="stop-color:#9CD7FF"/>
	<stop offset="0.636" style="stop-color:#98D4FD"/>
	<stop offset="0.7293" style="stop-color:#8DCAF6"/>
	<stop offset="0.8214" style="stop-color:#79BBEB"/>
	<stop offset="0.912" style="stop-color:#5EA5DC"/>
	<stop offset="1" style="stop-color:#3C89C9"/>
</linearGradient>
<path fill="url(#svg2.SVGID_1_)" d="M19.625,36.763C8.787,36.763,0,34.888,0,32.575v10c0,2.313,8.787,4.188,19.625,4.188  c10.839,0,19.625-1.875,19.625-4.188v-10C39.25,34.888,30.464,36.763,19.625,36.763z"/>
<linearGradient gradientTransform="matrix(1 0 0 -1 -642.8008 -939.4756)" x1="642.8008" x2="682.0508" gradientUnits="userSpaceOnUse" y1="-973.1445" y2="-973.1445" id="svg2.SVGID_2_">
	<stop offset="0" style="stop-color:#9CD7FF"/>
	<stop offset="0.0039" style="stop-color:#9DD7FF"/>
	<stop offset="0.2273" style="stop-color:#BDE5FF"/>
	<stop offset="0.4138" style="stop-color:#D1EEFF"/>
	<stop offset="0.5394" style="stop-color:#D9F1FF"/>
	<stop offset="0.6155" style="stop-color:#D5EFFE"/>
	<stop offset="0.6891" style="stop-color:#C9E7FA"/>
	<stop offset="0.7617" style="stop-color:#B6DAF3"/>
	<stop offset="0.8337" style="stop-color:#9AC8EA"/>
	<stop offset="0.9052" style="stop-color:#77B0DD"/>
	<stop offset="0.9754" style="stop-color:#4D94CF"/>
	<stop offset="1" style="stop-color:#3C89C9"/>
</linearGradient>
<path fill="url(#svg2.SVGID_2_)" d="M19.625,36.763c10.839,0,19.625-1.875,19.625-4.188l-1.229-2c0,2.168-8.235,3.927-18.396,3.927  c-9.481,0-17.396-1.959-18.396-3.927l-1.229,2C0,34.888,8.787,36.763,19.625,36.763z"/>
<path fill="#3C89C9" d="M19.625,26.468c10.16,0,19.625,2.775,19.625,2.775c-0.375,2.721-5.367,5.438-19.554,5.438  c-12.125,0-18.467-2.484-19.541-4.918C-0.127,29.125,9.465,26.468,19.625,26.468z"/>
<linearGradient gradientTransform="matrix(1 0 0 -1 -642.8008 -939.4756)" x1="642.8008" x2="682.0508" gradientUnits="userSpaceOnUse" y1="-965.6948" y2="-965.6948" id="svg2.SVGID_3_">
	<stop offset="0" style="stop-color:#3C89C9"/>
	<stop offset="0.1482" style="stop-color:#60A6DD"/>
	<stop offset="0.3113" style="stop-color:#81C1F0"/>
	<stop offset="0.4476" style="stop-color:#95D1FB"/>
	<stop offset="0.5394" style="stop-color:#9CD7FF"/>
	<stop offset="0.636" style="stop-color:#98D4FD"/>
	<stop offset="0.7293" style="stop-color:#8DCAF6"/>
	<stop offset="0.8214" style="stop-color:#79BBEB"/>
	<stop offset="0.912" style="stop-color:#5EA5DC"/>
	<stop offset="1" style="stop-color:#3C89C9"/>
</linearGradient>
<path fill="url(#svg2.SVGID_3_)" d="M19.625,23.313C8.787,23.313,0,21.438,0,19.125v10c0,2.313,8.787,4.188,19.625,4.188  c10.839,0,19.625-1.875,19.625-4.188v-10C39.25,21.438,30.464,23.313,19.625,23.313z"/>
<linearGradient gradientTransform="matrix(1 0 0 -1 -642.8008 -939.4756)" x1="642.8008" x2="682.0508" gradientUnits="userSpaceOnUse" y1="-959.6948" y2="-959.6948" id="svg2.SVGID_4_">
	<stop offset="0" style="stop-color:#9CD7FF"/>
	<stop offset="0.0039" style="stop-color:#9DD7FF"/>
	<stop offset="0.2273" style="stop-color:#BDE5FF"/>
	<stop offset="0.4138" style="stop-color:#D1EEFF"/>
	<stop offset="0.5394" style="stop-color:#D9F1FF"/>
	<stop offset="0.6155" style="stop-color:#D5EFFE"/>
	<stop offset="0.6891" style="stop-color:#C9E7FA"/>
	<stop offset="0.7617" style="stop-color:#B6DAF3"/>
	<stop offset="0.8337" style="stop-color:#9AC8EA"/>
	<stop offset="0.9052" style="stop-color:#77B0DD"/>
	<stop offset="0.9754" style="stop-color:#4D94CF"/>
	<stop offset="1" style="stop-color:#3C89C9"/>
</linearGradient>
<path fill="url(#svg2.SVGID_4_)" d="M19.625,23.313c10.839,0,19.625-1.875,19.625-4.188l-1.229-2c0,2.168-8.235,3.926-18.396,3.926  c-9.481,0-17.396-1.959-18.396-3.926l-1.229,2C0,21.438,8.787,23.313,19.625,23.313z"/>
<path fill="#3C89C9" d="M19.476,13.019c10.161,0,19.625,2.775,19.625,2.775c-0.375,2.721-5.367,5.438-19.555,5.438  c-12.125,0-18.467-2.485-19.541-4.918C-0.277,15.674,9.316,13.019,19.476,13.019z"/>
<linearGradient gradientTransform="matrix(1 0 0 -1 -642.8008 -939.4756)" x1="642.8008" x2="682.0508" gradientUnits="userSpaceOnUse" y1="-952.4946" y2="-952.4946" id="svg2.SVGID_5_">
	<stop offset="0" style="stop-color:#3C89C9"/>
	<stop offset="0.1482" style="stop-color:#60A6DD"/>
	<stop offset="0.3113" style="stop-color:#81C1F0"/>
	<stop offset="0.4476" style="stop-color:#95D1FB"/>
	<stop offset="0.5394" style="stop-color:#9CD7FF"/>
	<stop offset="0.636" style="stop-color:#98D4FD"/>
	<stop offset="0.7293" style="stop-color:#8DCAF6"/>
	<stop offset="0.8214" style="stop-color:#79BBEB"/>
	<stop offset="0.912" style="stop-color:#5EA5DC"/>
	<stop offset="1" style="stop-color:#3C89C9"/>
</linearGradient>
<path fill="url(#svg2.SVGID_5_)" d="M19.625,10.113C8.787,10.113,0,8.238,0,5.925v10c0,2.313,8.787,4.188,19.625,4.188  c10.839,0,19.625-1.875,19.625-4.188v-10C39.25,8.238,30.464,10.113,19.625,10.113z"/>
<linearGradient gradientTransform="matrix(1 0 0 -1 -642.8008 -939.4756)" x1="642.8008" x2="682.0508" gradientUnits="userSpaceOnUse" y1="-946.4946" y2="-946.4946" id="svg2.SVGID_6_">
	<stop offset="0" style="stop-color:#9CD7FF"/>
	<stop offset="0.0039" style="stop-color:#9DD7FF"/>
	<stop offset="0.2273" style="stop-color:#BDE5FF"/>
	<stop offset="0.4138" style="stop-color:#D1EEFF"/>
	<stop offset="0.5394" style="stop-color:#D9F1FF"/>
	<stop offset="0.6155" style="stop-color:#D5EFFE"/>
	<stop offset="0.6891" style="stop-color:#C9E7FA"/>
	<stop offset="0.7617" style="stop-color:#B6DAF3"/>
	<stop offset="0.8337" style="stop-color:#9AC8EA"/>
	<stop offset="0.9052" style="stop-color:#77B0DD"/>
	<stop offset="0.9754" style="stop-color:#4D94CF"/>
	<stop offset="1" style="stop-color:#3C89C9"/>
</linearGradient>
<path fill="url(#svg2.SVGID_6_)" d="M19.625,10.113c10.839,0,19.625-1.875,19.625-4.188l-1.229-2c0,2.168-8.235,3.926-18.396,3.926  c-9.481,0-17.396-1.959-18.396-3.926L0,5.925C0,8.238,8.787,10.113,19.625,10.113z"/>
<linearGradient gradientTransform="matrix(1 0 0 -1 -642.8008 -939.4756)" x1="644.0293" x2="680.8223" gradientUnits="userSpaceOnUse" y1="-943.4014" y2="-943.4014" id="svg2.SVGID_7_">
	<stop offset="0" style="stop-color:#9CD7FF"/>
	<stop offset="1" style="stop-color:#3C89C9"/>
</linearGradient>
<ellipse rx="18.396" fill="url(#svg2.SVGID_7_)" ry="3.926" cx="19.625" cy="3.926"/>
<path fill="#FFFFFF" d="M31.04,45.982c0,0-4.354,0.664-7.29,0.781  c-3.125,0.125-8.952,0-8.952,0l-2.384-10.292l0.044-2.108l-1.251-1.154L9.789,23.024l-0.082-0.119L9.5,20.529l-1.65-1.254  L5.329,8.793c0,0,4.213,0.903,7.234,1.07s8.375,0.25,8.375,0.25l3,9.875l-0.25,1.313l1.063,2.168l2.312,9.645l-0.521,1.416  l1.46,1.834L31.04,45.982z" enable-background="new    " opacity="0.24"/>
</svg>
      </g>
    </g>
    <g text-rendering="geometricPrecision" stroke-miterlimit="1.45" shape-rendering="geometricPrecision" transform="matrix(1,0,0,1,-90,-131)" stroke-linecap="butt">
      <rect fill="none" x="862" width="622" height="444" y="146" clip-path="url(#clipPath2)"/>
      <text x="1150.0957" xml:space="preserve" y="344.2695" clip-path="url(#clipPath2)" font-family="sans-serif" stroke="none">Logistik</text>
      <text x="1171.1016" xml:space="preserve" y="358.4023" clip-path="url(#clipPath2)" font-family="sans-serif" stroke="none"> </text>
      <text x="1107.876" xml:space="preserve" y="372.5352" clip-path="url(#clipPath2)" font-family="sans-serif" stroke="none">- bekommt Bestellung</text>
      <text x="1079.1504" xml:space="preserve" y="386.668" clip-path="url(#clipPath2)" font-family="sans-serif" stroke="none">- Artikel prüfen (auf Lager usw.)</text>
      <text x="1131.0791" xml:space="preserve" y="400.8008" clip-path="url(#clipPath2)" font-family="sans-serif" stroke="none">- Bestellstatus</text>
    </g>
    <g text-rendering="geometricPrecision" shape-rendering="geometricPrecision" transform="matrix(1,0,0,1,835.6385,375.669)">
      <g clip-path="url(#clipPath5)">
        <svg xml:space="preserve" opacity="1" writing-mode="lr-tb" stop-color="rgb(0, 0, 0)" shape-rendering="auto" glyph-orientation-horizontal="0deg" color-profile="auto" lighting-color="rgb(255, 255, 255)" color="rgb(0, 0, 0)" font-weight="400" alignment-baseline="auto" font-style="normal" version="1.1" color-interpolation-filters="linearrgb" text-anchor="start" stroke-linecap="butt" color-interpolation="srgb" font-variant="normal" word-spacing="normal" fill-opacity="1" text-rendering="auto" clip-path="none" text-decoration="none" letter-spacing="normal" viewBox="-0.875 -0.887 41 48" glyph-orientation-vertical="auto" display="inline" font-size-adjust="none" overflow="hidden" fill="rgb(0, 0, 0)" font-stretch="normal" stroke-dasharray="none" stroke-miterlimit="4" stop-opacity="1" color-rendering="auto" font-size="12" pointer-events="visiblepainted" mask="none" direction="ltr" baseline-shift="baseline" enable-background="new -0.875 -0.887 41 48" fill-rule="nonzero" image-rendering="auto" stroke-dashoffset="0" width="41px" marker-end="none" clip="auto" cursor="auto" stroke="none" filter="none" visibility="visible" kerning="auto" stroke-width="1" font-family="&quot;Arial&quot;,&quot;Helvetica&quot;,sans-serif" flood-opacity="1" clip-rule="nonzero" src="none" height="48px" unicode-bidi="normal" stroke-linejoin="miter" stroke-opacity="1" flood-color="rgb(0, 0, 0)" dominant-baseline="auto" marker-start="none" x="0px" marker-mid="none" y="0px">
<defs>
</defs>
<linearGradient gradientTransform="matrix(1 0 0 -1 -642.8008 -939.4756)" x1="642.8008" x2="682.0508" gradientUnits="userSpaceOnUse" y1="-979.1445" y2="-979.1445" id="svg3.SVGID_1_">
	<stop offset="0" style="stop-color:#3C89C9"/>
	<stop offset="0.1482" style="stop-color:#60A6DD"/>
	<stop offset="0.3113" style="stop-color:#81C1F0"/>
	<stop offset="0.4476" style="stop-color:#95D1FB"/>
	<stop offset="0.5394" style="stop-color:#9CD7FF"/>
	<stop offset="0.636" style="stop-color:#98D4FD"/>
	<stop offset="0.7293" style="stop-color:#8DCAF6"/>
	<stop offset="0.8214" style="stop-color:#79BBEB"/>
	<stop offset="0.912" style="stop-color:#5EA5DC"/>
	<stop offset="1" style="stop-color:#3C89C9"/>
</linearGradient>
<path fill="url(#svg3.SVGID_1_)" d="M19.625,36.763C8.787,36.763,0,34.888,0,32.575v10c0,2.313,8.787,4.188,19.625,4.188  c10.839,0,19.625-1.875,19.625-4.188v-10C39.25,34.888,30.464,36.763,19.625,36.763z"/>
<linearGradient gradientTransform="matrix(1 0 0 -1 -642.8008 -939.4756)" x1="642.8008" x2="682.0508" gradientUnits="userSpaceOnUse" y1="-973.1445" y2="-973.1445" id="svg3.SVGID_2_">
	<stop offset="0" style="stop-color:#9CD7FF"/>
	<stop offset="0.0039" style="stop-color:#9DD7FF"/>
	<stop offset="0.2273" style="stop-color:#BDE5FF"/>
	<stop offset="0.4138" style="stop-color:#D1EEFF"/>
	<stop offset="0.5394" style="stop-color:#D9F1FF"/>
	<stop offset="0.6155" style="stop-color:#D5EFFE"/>
	<stop offset="0.6891" style="stop-color:#C9E7FA"/>
	<stop offset="0.7617" style="stop-color:#B6DAF3"/>
	<stop offset="0.8337" style="stop-color:#9AC8EA"/>
	<stop offset="0.9052" style="stop-color:#77B0DD"/>
	<stop offset="0.9754" style="stop-color:#4D94CF"/>
	<stop offset="1" style="stop-color:#3C89C9"/>
</linearGradient>
<path fill="url(#svg3.SVGID_2_)" d="M19.625,36.763c10.839,0,19.625-1.875,19.625-4.188l-1.229-2c0,2.168-8.235,3.927-18.396,3.927  c-9.481,0-17.396-1.959-18.396-3.927l-1.229,2C0,34.888,8.787,36.763,19.625,36.763z"/>
<path fill="#3C89C9" d="M19.625,26.468c10.16,0,19.625,2.775,19.625,2.775c-0.375,2.721-5.367,5.438-19.554,5.438  c-12.125,0-18.467-2.484-19.541-4.918C-0.127,29.125,9.465,26.468,19.625,26.468z"/>
<linearGradient gradientTransform="matrix(1 0 0 -1 -642.8008 -939.4756)" x1="642.8008" x2="682.0508" gradientUnits="userSpaceOnUse" y1="-965.6948" y2="-965.6948" id="svg3.SVGID_3_">
	<stop offset="0" style="stop-color:#3C89C9"/>
	<stop offset="0.1482" style="stop-color:#60A6DD"/>
	<stop offset="0.3113" style="stop-color:#81C1F0"/>
	<stop offset="0.4476" style="stop-color:#95D1FB"/>
	<stop offset="0.5394" style="stop-color:#9CD7FF"/>
	<stop offset="0.636" style="stop-color:#98D4FD"/>
	<stop offset="0.7293" style="stop-color:#8DCAF6"/>
	<stop offset="0.8214" style="stop-color:#79BBEB"/>
	<stop offset="0.912" style="stop-color:#5EA5DC"/>
	<stop offset="1" style="stop-color:#3C89C9"/>
</linearGradient>
<path fill="url(#svg3.SVGID_3_)" d="M19.625,23.313C8.787,23.313,0,21.438,0,19.125v10c0,2.313,8.787,4.188,19.625,4.188  c10.839,0,19.625-1.875,19.625-4.188v-10C39.25,21.438,30.464,23.313,19.625,23.313z"/>
<linearGradient gradientTransform="matrix(1 0 0 -1 -642.8008 -939.4756)" x1="642.8008" x2="682.0508" gradientUnits="userSpaceOnUse" y1="-959.6948" y2="-959.6948" id="svg3.SVGID_4_">
	<stop offset="0" style="stop-color:#9CD7FF"/>
	<stop offset="0.0039" style="stop-color:#9DD7FF"/>
	<stop offset="0.2273" style="stop-color:#BDE5FF"/>
	<stop offset="0.4138" style="stop-color:#D1EEFF"/>
	<stop offset="0.5394" style="stop-color:#D9F1FF"/>
	<stop offset="0.6155" style="stop-color:#D5EFFE"/>
	<stop offset="0.6891" style="stop-color:#C9E7FA"/>
	<stop offset="0.7617" style="stop-color:#B6DAF3"/>
	<stop offset="0.8337" style="stop-color:#9AC8EA"/>
	<stop offset="0.9052" style="stop-color:#77B0DD"/>
	<stop offset="0.9754" style="stop-color:#4D94CF"/>
	<stop offset="1" style="stop-color:#3C89C9"/>
</linearGradient>
<path fill="url(#svg3.SVGID_4_)" d="M19.625,23.313c10.839,0,19.625-1.875,19.625-4.188l-1.229-2c0,2.168-8.235,3.926-18.396,3.926  c-9.481,0-17.396-1.959-18.396-3.926l-1.229,2C0,21.438,8.787,23.313,19.625,23.313z"/>
<path fill="#3C89C9" d="M19.476,13.019c10.161,0,19.625,2.775,19.625,2.775c-0.375,2.721-5.367,5.438-19.555,5.438  c-12.125,0-18.467-2.485-19.541-4.918C-0.277,15.674,9.316,13.019,19.476,13.019z"/>
<linearGradient gradientTransform="matrix(1 0 0 -1 -642.8008 -939.4756)" x1="642.8008" x2="682.0508" gradientUnits="userSpaceOnUse" y1="-952.4946" y2="-952.4946" id="svg3.SVGID_5_">
	<stop offset="0" style="stop-color:#3C89C9"/>
	<stop offset="0.1482" style="stop-color:#60A6DD"/>
	<stop offset="0.3113" style="stop-color:#81C1F0"/>
	<stop offset="0.4476" style="stop-color:#95D1FB"/>
	<stop offset="0.5394" style="stop-color:#9CD7FF"/>
	<stop offset="0.636" style="stop-color:#98D4FD"/>
	<stop offset="0.7293" style="stop-color:#8DCAF6"/>
	<stop offset="0.8214" style="stop-color:#79BBEB"/>
	<stop offset="0.912" style="stop-color:#5EA5DC"/>
	<stop offset="1" style="stop-color:#3C89C9"/>
</linearGradient>
<path fill="url(#svg3.SVGID_5_)" d="M19.625,10.113C8.787,10.113,0,8.238,0,5.925v10c0,2.313,8.787,4.188,19.625,4.188  c10.839,0,19.625-1.875,19.625-4.188v-10C39.25,8.238,30.464,10.113,19.625,10.113z"/>
<linearGradient gradientTransform="matrix(1 0 0 -1 -642.8008 -939.4756)" x1="642.8008" x2="682.0508" gradientUnits="userSpaceOnUse" y1="-946.4946" y2="-946.4946" id="svg3.SVGID_6_">
	<stop offset="0" style="stop-color:#9CD7FF"/>
	<stop offset="0.0039" style="stop-color:#9DD7FF"/>
	<stop offset="0.2273" style="stop-color:#BDE5FF"/>
	<stop offset="0.4138" style="stop-color:#D1EEFF"/>
	<stop offset="0.5394" style="stop-color:#D9F1FF"/>
	<stop offset="0.6155" style="stop-color:#D5EFFE"/>
	<stop offset="0.6891" style="stop-color:#C9E7FA"/>
	<stop offset="0.7617" style="stop-color:#B6DAF3"/>
	<stop offset="0.8337" style="stop-color:#9AC8EA"/>
	<stop offset="0.9052" style="stop-color:#77B0DD"/>
	<stop offset="0.9754" style="stop-color:#4D94CF"/>
	<stop offset="1" style="stop-color:#3C89C9"/>
</linearGradient>
<path fill="url(#svg3.SVGID_6_)" d="M19.625,10.113c10.839,0,19.625-1.875,19.625-4.188l-1.229-2c0,2.168-8.235,3.926-18.396,3.926  c-9.481,0-17.396-1.959-18.396-3.926L0,5.925C0,8.238,8.787,10.113,19.625,10.113z"/>
<linearGradient gradientTransform="matrix(1 0 0 -1 -642.8008 -939.4756)" x1="644.0293" x2="680.8223" gradientUnits="userSpaceOnUse" y1="-943.4014" y2="-943.4014" id="svg3.SVGID_7_">
	<stop offset="0" style="stop-color:#9CD7FF"/>
	<stop offset="1" style="stop-color:#3C89C9"/>
</linearGradient>
<ellipse rx="18.396" fill="url(#svg3.SVGID_7_)" ry="3.926" cx="19.625" cy="3.926"/>
<path fill="#FFFFFF" d="M31.04,45.982c0,0-4.354,0.664-7.29,0.781  c-3.125,0.125-8.952,0-8.952,0l-2.384-10.292l0.044-2.108l-1.251-1.154L9.789,23.024l-0.082-0.119L9.5,20.529l-1.65-1.254  L5.329,8.793c0,0,4.213,0.903,7.234,1.07s8.375,0.25,8.375,0.25l3,9.875l-0.25,1.313l1.063,2.168l2.312,9.645l-0.521,1.416  l1.46,1.834L31.04,45.982z" enable-background="new    " opacity="0.24"/>
</svg>
      </g>
    </g>
    <g text-rendering="geometricPrecision" stroke-miterlimit="1.45" shape-rendering="geometricPrecision" transform="matrix(1,0,0,1,-90,-131)" stroke-linecap="butt">
      <rect fill="none" x="1032" width="266" height="109" y="677" clip-path="url(#clipPath2)"/>
      <text x="1138.5039" xml:space="preserve" y="736.0352" clip-path="url(#clipPath2)" font-family="sans-serif" stroke="none">Webshop</text>
    </g>
    <g text-rendering="geometricPrecision" shape-rendering="geometricPrecision" transform="matrix(0.9995,0,0,1.0011,1037.916,761.824)">
      <g clip-path="url(#clipPath6)">
        <svg xml:space="preserve" opacity="1" writing-mode="lr-tb" stop-color="rgb(0, 0, 0)" shape-rendering="auto" glyph-orientation-horizontal="0deg" color-profile="auto" lighting-color="rgb(255, 255, 255)" color="rgb(0, 0, 0)" font-weight="400" alignment-baseline="auto" font-style="normal" version="1.1" color-interpolation-filters="linearrgb" text-anchor="start" stroke-linecap="butt" color-interpolation="srgb" font-variant="normal" word-spacing="normal" fill-opacity="1" text-rendering="auto" clip-path="none" text-decoration="none" letter-spacing="normal" viewBox="0 0 59 34" glyph-orientation-vertical="auto" display="inline" font-size-adjust="none" overflow="hidden" fill="rgb(0, 0, 0)" font-stretch="normal" stroke-dasharray="none" id="svg4.Ebene_1" stroke-miterlimit="4" stop-opacity="1" color-rendering="auto" font-size="12" pointer-events="visiblepainted" mask="none" direction="ltr" baseline-shift="baseline" enable-background="new 0 0 59 34" fill-rule="nonzero" image-rendering="auto" stroke-dashoffset="0" width="59px" marker-end="none" clip="auto" cursor="auto" stroke="none" filter="none" visibility="visible" kerning="auto" stroke-width="1" font-family="&quot;Arial&quot;,&quot;Helvetica&quot;,sans-serif" flood-opacity="1" clip-rule="nonzero" src="none" height="34px" unicode-bidi="normal" stroke-linejoin="miter" stroke-opacity="1" flood-color="rgb(0, 0, 0)" dominant-baseline="auto" marker-start="none" x="0px" marker-mid="none" y="0px">
<g>
	
		<linearGradient gradientTransform="matrix(1 0 0 -1 0.3604 -3057.6113)" x1="13.4722" x2="14.2016" gradientUnits="userSpaceOnUse" y1="-3073.124" y2="-3090.6384" id="svg4.neck_x5F_white_1_">
		<stop offset="0.2711" style="stop-color:#FFAB4F"/>
		<stop offset="1" style="stop-color:#FFD28F"/>
	</linearGradient>
	<path fill="url(#svg4.neck_x5F_white_1_)" id="svg4.neck_x5F_white_7_" stroke-width="0.5" d="   M9.639,18.898h9.094v10.115c-0.658,0.187-8.587,0.219-9.094,0.086V18.898z" stroke-miterlimit="10" stroke="#FFAB4F"/>
	
		<linearGradient gradientTransform="matrix(1 0 0 -1 0.3604 -3057.6113)" x1="12.9697" x2="13.5902" gradientUnits="userSpaceOnUse" y1="-3069.5903" y2="-3084.491" id="svg4.SVGID_1_">
		<stop offset="0.2711" style="stop-color:#FFAB4F"/>
		<stop offset="1" style="stop-color:#FFD28F"/>
	</linearGradient>
	<path fill="url(#svg4.SVGID_1_)" stroke-width="0.5" d="M24.765,25.611   c-2.197-2.196-5.476-2.94-6.031-3.055v-3.658H9.639c0,0,0.019,3.453,0,3.436c0,0-3.437,0.499-6.154,3.216   c-2.796,2.796-3.235,5.835-3.235,5.835c0,0.971,0.788,1.746,1.762,1.746h24.255c0.975,0,1.762-0.777,1.762-1.746   C28.028,31.384,27.106,27.953,24.765,25.611z" stroke-miterlimit="10" stroke="#ED9135"/>
	
		<radialGradient gradientTransform="matrix(1 0 0 -1 0.3604 -3057.6113)" gradientUnits="userSpaceOnUse" r="11.713" cx="13.5923" id="svg4.face_x5F_white_1_" cy="-3070.4746" fx="11.3074" fy="-3071.7195">
		<stop offset="0" style="stop-color:#FFD28F"/>
		<stop offset="1" style="stop-color:#FFAB4F"/>
	</radialGradient>
	<path fill="url(#svg4.face_x5F_white_1_)" id="svg4.face_x5F_white_7_" stroke-width="0.5" d="   M21.839,11.679c0.043,5.1-3.369,9.26-7.626,9.293c-4.25,0.033-7.731-4.074-7.774-9.173C6.398,6.7,9.81,2.54,14.062,2.506   C18.313,2.473,21.796,6.579,21.839,11.679z" stroke-miterlimit="10" stroke="#ED9135"/>
	
		<linearGradient gradientTransform="matrix(0.275 0 0 0.2733 -1945.4338 -3893.9907)" x1="7121.4932" x2="7133.3081" gradientUnits="userSpaceOnUse" y1="14261.8359" y2="14308.5615" id="svg4.face_highlight_1_">
		<stop offset="0" style="stop-color:#FFFFFF;stop-opacity:0.24"/>
		<stop offset="1" style="stop-color:#FFFFFF;stop-opacity:0.16"/>
	</linearGradient>
	<path fill="url(#svg4.face_highlight_1_)" id="svg4.face_highlight_7_" d="M14.208,2.813C11.19,2.835,8.834,5.059,7.814,8.006   c-0.332,0.959-0.147,2.021,0.49,2.814c1.365,1.699,2.865,3.141,4.73,4.044c1.568,0.759,3.767,1.192,5.947,0.623   c1.137-0.296,1.994-1.229,2.188-2.383c0.094-0.547,0.146-1.145,0.141-1.776C21.271,6.622,18.364,2.78,14.208,2.813z"/>
	
		<path stroke-linecap="round" fill="#CC9869" stroke-linejoin="round" d="   M10.139,6.625c0,0,2.661,3.625,7.5,1.875c1.363-0.281,4.527,0.518,4.527,0.518s-1.826-8.085-8.522-7.646   c-8.943,0.69-7.615,11.467-7.615,11.467s1.384-0.342,2.518-2.401C9.034,9.553,10.139,6.625,10.139,6.625z" id="svg4.hair_x5F_gray_6_" stroke="#99724F" stroke-width="0.5"/>
	
		<radialGradient gradientTransform="matrix(1 0 0 -1 0.3604 -3057.6113)" id="svg4.collar_x5F_body_1_" r="16.2006" cx="7.2808" gradientUnits="userSpaceOnUse" cy="-3086.1948">
		<stop offset="0" style="stop-color:#B0E8FF"/>
		<stop offset="1" style="stop-color:#74AEEE"/>
	</radialGradient>
	<path fill="url(#svg4.collar_x5F_body_1_)" id="svg4.collar_x5F_body_7_" d="M0.25,31.384   c0,0.97,0.788,1.747,1.762,1.747h24.255c0.975,0,1.762-0.779,1.762-1.747c0,0-0.922-3.431-3.264-5.771   c-2.408-2.406-5.622-3.072-5.622-3.072c-0.886,0.827-2.806,1.4-5.031,1.4c-2.227,0-4.146-0.573-5.032-1.4   c0,0-2.877,0.293-5.594,3.01C0.689,28.346,0.25,31.384,0.25,31.384z" stroke-width="0.5" stroke="#5491CF"/>
	
		<radialGradient gradientTransform="matrix(1 0 0 -1 0.3604 -3057.6113)" id="svg4.collar_x5F_r_1_" r="4.6415" cx="15.4497" gradientUnits="userSpaceOnUse" cy="-3081.2578">
		<stop offset="0" style="stop-color:#80CCFF"/>
		<stop offset="1" style="stop-color:#74AEEE"/>
	</radialGradient>
	<path fill="url(#svg4.collar_x5F_r_1_)" id="svg4.collar_x5F_r_7_" d="M19.079,20.689   c0,0-0.287,1.186-1.506,2.222c-1.055,0.897-2.892,1.036-2.892,1.036l1.987,3.107c0,0,1.479-0.818,2.504-1.924   c0.961-1.035,0.686-2.74,0.686-2.74L19.079,20.689z" stroke-width="0.5" stroke="#5491CF"/>
	
		<radialGradient gradientTransform="matrix(1 0 0 -1 0.3604 -3057.6113)" id="svg4.collar_x5F_l_1_" r="4.6425" cx="9.2686" gradientUnits="userSpaceOnUse" cy="-3081.2778">
		<stop offset="0" style="stop-color:#80CCFF"/>
		<stop offset="1" style="stop-color:#74AEEE"/>
	</radialGradient>
	<path fill="url(#svg4.collar_x5F_l_1_)" id="svg4.collar_x5F_l_7_" d="M9.315,20.711   c0,0,0.288,1.186,1.506,2.221c1.055,0.896,2.893,1.037,2.893,1.037l-1.987,3.107c0,0-1.479-0.818-2.503-1.926   c-0.961-1.035-0.685-2.739-0.685-2.739L9.315,20.711z" stroke-width="0.5" stroke="#5491CF"/>
	
		<radialGradient gradientTransform="matrix(1 0 0 -1 0.2803 -2284.9199)" id="svg4.Knob2_1_" r="0.4838" cx="13.6846" gradientUnits="userSpaceOnUse" cy="-2313.0259">
		<stop offset="0" style="stop-color:#80CCFF"/>
		<stop offset="1" style="stop-color:#74AEEE"/>
	</radialGradient>
	<circle fill="url(#svg4.Knob2_1_)" r="0.292" cx="14.129" id="svg4.Knob2_7_" cy="28.127" stroke="#5491CF" stroke-width="0.5"/>
	
		<radialGradient gradientTransform="matrix(1 0 0 -1 0.2803 -2284.9199)" id="svg4.Knob1_1_" r="0.4836" cx="13.7036" gradientUnits="userSpaceOnUse" cy="-2316.1479">
		<stop offset="0" style="stop-color:#80CCFF"/>
		<stop offset="1" style="stop-color:#74AEEE"/>
	</radialGradient>
	<circle fill="url(#svg4.Knob1_1_)" r="0.292" cx="14.148" id="svg4.Knob1_7_" cy="31.25" stroke="#5491CF" stroke-width="0.5"/>
	<path fill="#D54A30" id="svg4.path5135_10_" d="M13.722,27.615c0,0-0.926,1.027-1.041,3.271   c-0.115,2.243,0,2.243,0,2.243h3.273c0,0,0.115,0.031-0.078-2.185c-0.199-2.301-1.193-3.334-1.193-3.334L13.722,27.615   L13.722,27.615z" stroke-width="0.5" stroke="#B51A19"/>
	<path fill="#D54A30" id="svg4.path5131_10_" d="M14.163,24.344h0.063l1.276,2.002   c0.258,0.477-0.604,0.898-0.729,1.273l-1.14-0.01c-0.121-0.379-1.13-0.685-0.738-1.291L14.163,24.344z" stroke-width="0.5" stroke="#B51A19"/>
	<polygon fill="#353535" stroke-width="0.5" points="   52.225,22.842 36.594,25.037 36.139,13.559 51.746,13.873  " stroke="#353535" stroke-linecap="round" stroke-linejoin="round"/>
	
		<linearGradient gradientTransform="matrix(1 0 0 -1 0.3604 -3057.6113)" x1="43.3594" x2="44.0888" gradientUnits="userSpaceOnUse" y1="-3073.1235" y2="-3090.6387" id="svg4.neck_x5F_white_2_">
		<stop offset="0.2711" style="stop-color:#FFAB4F"/>
		<stop offset="1" style="stop-color:#FFD28F"/>
	</linearGradient>
	<path fill="url(#svg4.neck_x5F_white_2_)" id="svg4.neck_x5F_white_5_" stroke-width="0.5" d="   M39.525,18.898h9.096v10.115c-0.658,0.187-8.587,0.219-9.096,0.086V18.898z" stroke-miterlimit="10" stroke="#FFAB4F"/>
	
		<linearGradient gradientTransform="matrix(1 0 0 -1 0.3604 -3057.6113)" x1="42.8584" x2="43.4789" gradientUnits="userSpaceOnUse" y1="-3069.5903" y2="-3084.491" id="svg4.SVGID_2_">
		<stop offset="0.2711" style="stop-color:#FFAB4F"/>
		<stop offset="1" style="stop-color:#FFD28F"/>
	</linearGradient>
	<path fill="url(#svg4.SVGID_2_)" stroke-width="0.5" d="M54.652,25.611   c-2.197-2.196-5.477-2.94-6.031-3.055v-3.658h-9.096c0,0,0.021,3.453,0,3.436c0,0-3.437,0.499-6.152,3.216   c-2.796,2.796-3.234,5.835-3.234,5.835c0,0.971,0.786,1.746,1.762,1.746h24.254c0.976,0,1.763-0.777,1.763-1.746   C57.916,31.384,56.994,27.953,54.652,25.611z" stroke-miterlimit="10" stroke="#ED9135"/>
	
		<radialGradient gradientTransform="matrix(1 0 0 -1 0.3604 -3057.6113)" gradientUnits="userSpaceOnUse" r="11.7123" cx="43.4795" id="svg4.face_x5F_white_2_" cy="-3070.4746" fx="41.1947" fy="-3071.7195">
		<stop offset="0" style="stop-color:#FFD28F"/>
		<stop offset="1" style="stop-color:#FFAB4F"/>
	</radialGradient>
	<path fill="url(#svg4.face_x5F_white_2_)" id="svg4.face_x5F_white_5_" stroke-width="0.5" d="   M51.727,11.679c0.043,5.1-3.369,9.26-7.625,9.293c-4.25,0.033-7.731-4.074-7.774-9.173c-0.041-5.1,3.37-9.26,7.623-9.294   C48.201,2.473,51.684,6.579,51.727,11.679z" stroke-miterlimit="10" stroke="#ED9135"/>
	
		<linearGradient gradientTransform="matrix(0.275 0 0 0.2733 -1945.4338 -3893.9907)" x1="7230.1748" x2="7241.9893" gradientUnits="userSpaceOnUse" y1="14261.8359" y2="14308.5596" id="svg4.face_highlight_2_">
		<stop offset="0" style="stop-color:#FFFFFF;stop-opacity:0.24"/>
		<stop offset="1" style="stop-color:#FFFFFF;stop-opacity:0.16"/>
	</linearGradient>
	<path fill="url(#svg4.face_highlight_2_)" id="svg4.face_highlight_5_" d="M44.096,2.813c-3.018,0.023-5.373,2.247-6.394,5.193   c-0.332,0.959-0.147,2.021,0.489,2.814c1.365,1.699,2.865,3.141,4.73,4.044c1.568,0.759,3.768,1.192,5.946,0.623   c1.137-0.296,1.993-1.229,2.188-2.383c0.094-0.547,0.146-1.145,0.141-1.776C51.158,6.622,48.252,2.78,44.096,2.813z"/>
	<path fill="#5C5C5C" d="M38.688,21.917   c-0.207-1.509-0.308-2.506-0.396-3.933c-0.287-4.673,1.442-8.859,1.442-8.859l0.44-1.039l0.47,1.209l0.938-2.478l-0.023,2.276   l0.654-0.374l0.352-0.827L42.745,9l0.526-0.494l1.065-0.364L44.809,8.5l0.238-1.188l0.417,1.277l0.563-0.513l0.84-0.106L47.4,8.656   l-0.121-2.123l0.941,1.984L48.693,8.5c0,0,3.014,4.974,1.875,14.213c1.076,0.381,2.24,1.344,3.438,2.324   c0.001-0.001,0.007-0.006,0.007-0.006L51.943,9.69c-0.517-3.253-2.68-8.39-7.69-8.366c-11.789-0.04-7.853,19.704-9.894,23.343   c-0.004,0.007-0.006,0.013-0.01,0.021C36.034,23.363,37.714,22.173,38.688,21.917z" stroke-width="0.5" stroke="#353535" stroke-linecap="round" stroke-linejoin="round"/>
	
		<radialGradient gradientTransform="matrix(0.9852 0 0 0.9852 -38.3758 -3898.4966)" id="svg4.body_1_" r="16.4227" cx="77.0439" gradientUnits="userSpaceOnUse" cy="3984.6543">
		<stop offset="0" style="stop-color:#FFC373"/>
		<stop offset="1" style="stop-color:#FFB448"/>
	</radialGradient>
	<path fill="url(#svg4.body_1_)" id="svg4.body_21_" d="M30.139,31.384c0,0.97,0.786,1.747,1.762,1.747   h24.254c0.976,0,1.763-0.779,1.763-1.747c0,0-0.922-3.431-3.265-5.771c-2.407-2.406-4.121-2.572-4.121-2.572   c-0.723,3.49-4.276,4.393-6.504,4.393s-5.66-1.32-5.971-4.72c0,0-2.279,0.601-4.684,2.837   C30.577,28.346,30.139,31.384,30.139,31.384z" stroke-width="0.5" stroke="#ED8D00"/>
</g>
</svg>
      </g>
    </g>
    <g text-rendering="geometricPrecision" stroke-miterlimit="1.45" shape-rendering="geometricPrecision" transform="matrix(1,0,0,1,-90,-131)" stroke-linecap="butt">
      <path fill="none" d="M690 594.3965 L854.7563 517.1703" clip-path="url(#clipPath2)"/>
      <path d="M862 513.775 L849.0123 514.3407 L853.8508 517.5948 L853.2565 523.3954 Z" clip-path="url(#clipPath2)" stroke="none"/>
      <path fill="none" d="M1055.6493 677 L673.16 486.3687" clip-path="url(#clipPath2)"/>
      <path d="M666 482.8002 L674.5097 492.628 L674.055 486.8148 L678.9703 483.6779 Z" clip-path="url(#clipPath2)" stroke="none"/>
      <path fill="none" d="M1032 731.5 L698 731.5" clip-path="url(#clipPath2)"/>
      <path d="M690 731.5 L702 736.5 L699 731.5 L702 726.5 Z" clip-path="url(#clipPath2)" stroke="none"/>
      <path fill="none" d="M1157.7285 893.745 L1162.1992 793.992" clip-path="url(#clipPath2)"/>
      <path d="M1162.5574 786 L1157.0251 797.7641 L1162.1544 794.991 L1167.0151 798.2118 Z" clip-path="url(#clipPath2)" stroke="none"/>
    </g>
  </g>
</svg>
